Seven.ufo
<glyph name="exclam" format="1">
  <advance width="400"/>
  <unicode hex="0021"/>
  <outline>
    <contour>
      <point x="236" y="533" type="line"/>
      <point x="151" y="533" type="line"/>
      <point x="80" y="1866" type="line"/>
      <point x="317" y="1866" type="line"/>
    </contour>
    <contour>
      <point x="88" y="0" type="line"/>
      <point x="88" y="250" type="line"/>
      <point x="305" y="250" type="line"/>
      <point x="305" y="0" type="line"/>
    </contour>
  </outline>
</glyph>
<glyph name="numbersign" format="1">
  <advance width="837"/>
  <unicode hex="0023"/>
  <outline>
    <contour>
      <point x="206" y="1" type="line"/>
      <point x="51" y="1" type="line"/>
      <point x="281" y="1866" type="line"/>
      <point x="436" y="1866" type="line"/>
    </contour>
    <contour>
      <point x="480" y="1" type="line"/>
      <point x="332" y="1" type="line"/>
      <point x="562" y="1866" type="line"/>
      <point x="710" y="1866" type="line"/>
    </contour>
    <contour>
      <point x="-15" y="658" type="line"/>
      <point x="719" y="658" type="line"/>
      <point x="699" y="519" type="line"/>
      <point x="-35" y="519" type="line"/>
    </contour>
    <contour>
      <point x="51" y="1333" type="line"/>
      <point x="785" y="1333" type="line"/>
      <point x="765" y="1194" type="line"/>
      <point x="31" y="1194" type="line"/>
    </contour>
  </outline>
</glyph>
<glyph name="percent" format="1">
  <advance width="1954"/>
  <unicode hex="0025"/>
  <outline>
    <contour>
      <point x="483" y="746" type="curve" smooth="yes"/>
      <point x="404" y="746"/>
      <point x="362" y="947"/>
      <point x="362" y="1269" type="curve" smooth="yes"/>
      <point x="362" y="1588"/>
      <point x="403" y="1780"/>
      <point x="483" y="1780" type="curve" smooth="yes"/>
      <point x="563" y="1780"/>
      <point x="604" y="1588"/>
      <point x="604" y="1269" type="curve" smooth="yes"/>
      <point x="604" y="947"/>
      <point x="562" y="746"/>
    </contour>
    <contour>
      <point x="483" y="616" type="curve" smooth="yes"/>
      <point x="692" y="616"/>
      <point x="804" y="888"/>
      <point x="804" y="1270" type="curve" smooth="yes"/>
      <point x="804" y="1647"/>
      <point x="693" y="1910"/>
      <point x="483" y="1910" type="curve" smooth="yes"/>
      <point x="265" y="1910"/>
      <point x="157" y="1647"/>
      <point x="157" y="1270" type="curve" smooth="yes"/>
      <point x="157" y="888"/>
      <point x="268" y="616"/>
    </contour>
    <contour>
      <point x="750" y="1" type="line"/>
      <point x="565" y="1" type="line"/>
      <point x="1270" y="1865" type="line"/>
      <point x="1445" y="1865" type="line"/>
    </contour>
    <contour>
      <point x="1538" y="95" type="curve" smooth="yes"/>
      <point x="1459" y="95"/>
      <point x="1417" y="296"/>
      <point x="1417" y="618" type="curve" smooth="yes"/>
      <point x="1417" y="937"/>
      <point x="1458" y="1129"/>
      <point x="1538" y="1129" type="curve" smooth="yes"/>
      <point x="1618" y="1129"/>
      <point x="1659" y="937"/>
      <point x="1659" y="618" type="curve" smooth="yes"/>
      <point x="1659" y="296"/>
      <point x="1617" y="95"/>
    </contour>
    <contour>
      <point x="1538" y="-35" type="curve" smooth="yes"/>
      <point x="1747" y="-35"/>
      <point x="1859" y="237"/>
      <point x="1859" y="619" type="curve" smooth="yes"/>
      <point x="1859" y="996"/>
      <point x="1748" y="1259"/>
      <point x="1538" y="1259" type="curve" smooth="yes"/>
      <point x="1320" y="1259"/>
      <point x="1212" y="996"/>
      <point x="1212" y="619" type="curve" smooth="yes"/>
      <point x="1212" y="237"/>
      <point x="1323" y="-35"/>
    </contour>
  </outline>
</glyph>
<glyph name="ampersand" format="1">
  <advance width="1130"/>
  <unicode hex="0026"/>
  <outline>
    <contour>
      <point x="538" y="862" type="curve"/>
      <point x="653" y="1063"/>
      <point x="802" y="1273"/>
      <point x="802" y="1536" type="curve" smooth="yes"/>
      <point x="802" y="1715"/>
      <point x="708" y="1911"/>
      <point x="508" y="1911" type="curve" smooth="yes"/>
      <point x="256" y="1911"/>
      <point x="168" y="1665"/>
      <point x="168" y="1480" type="curve" smooth="yes"/>
      <point x="168" y="1313"/>
      <point x="255" y="1097"/>
      <point x="317" y="943" type="curve"/>
      <point x="182" y="788"/>
      <point x="95" y="565"/>
      <point x="95" y="370" type="curve" smooth="yes"/>
      <point x="95" y="148"/>
      <point x="210" y="-36"/>
      <point x="500" y="-36" type="curve" smooth="yes"/>
      <point x="639" y="-36"/>
      <point x="738" y="17"/>
      <point x="810" y="100" type="curve"/>
      <point x="878" y="42"/>
      <point x="950" y="-2"/>
      <point x="1026" y="-30" type="curve"/>
      <point x="1030" y="-27" type="line"/>
      <point x="1113" y="140" type="line"/>
      <point x="1063" y="164"/>
      <point x="990" y="194"/>
      <point x="908" y="266" type="curve"/>
      <point x="955" y="386"/>
      <point x="972" y="524"/>
      <point x="972" y="645" type="curve" smooth="yes"/>
      <point x="972" y="721"/>
      <point x="965" y="791"/>
      <point x="956" y="845" type="curve"/>
      <point x="759" y="843" type="line"/>
      <point x="780" y="701"/>
      <point x="780" y="539"/>
      <point x="759" y="429" type="curve"/>
      <point x="688" y="533"/>
      <point x="606" y="668"/>
    </contour>
    <contour>
      <point x="508" y="143" type="curve" smooth="yes"/>
      <point x="375" y="143"/>
      <point x="323" y="252"/>
      <point x="323" y="381" type="curve" smooth="yes"/>
      <point x="323" y="496"/>
      <point x="354" y="619"/>
      <point x="411" y="700" type="curve"/>
      <point x="472" y="523"/>
      <point x="568" y="372"/>
      <point x="671" y="243" type="curve"/>
      <point x="634" y="182"/>
      <point x="581" y="143"/>
    </contour>
    <contour>
      <point x="382" y="1456" type="curve" smooth="yes"/>
      <point x="382" y="1633"/>
      <point x="424" y="1727"/>
      <point x="506" y="1727" type="curve" smooth="yes"/>
      <point x="593" y="1727"/>
      <point x="610" y="1603"/>
      <point x="610" y="1544" type="curve" smooth="yes"/>
      <point x="610" y="1457"/>
      <point x="536" y="1214"/>
      <point x="458" y="1086" type="curve"/>
      <point x="415" y="1218"/>
      <point x="382" y="1353"/>
    </contour>
  </outline>
</glyph>
<glyph name="plus" format="1">
  <advance width="725"/>
  <unicode hex="002B"/>
  <outline>
    <contour>
      <point x="90" y="1332" type="line"/>
      <point x="330" y="1332" type="line"/>
      <point x="330" y="1034" type="line"/>
      <point x="612" y="1034" type="line"/>
      <point x="612" y="855" type="line"/>
      <point x="330" y="855" type="line"/>
      <point x="330" y="545" type="line"/>
      <point x="90" y="544" type="line"/>
      <point x="90" y="854" type="line"/>
      <point x="-192" y="854" type="line"/>
      <point x="-192" y="1033" type="line"/>
      <point x="90" y="1033" type="line"/>
      <point x="90" y="1331" type="line"/>
    </contour>
  </outline>
</glyph>
<glyph name="comma" format="1">
  <advance width="400"/>
  <unicode hex="002C"/>
  <outline>
    <contour>
      <point x="136" y="-268" type="line"/>
      <point x="147" y="-210"/>
      <point x="166" y="-132"/>
      <point x="166" y="-64" type="curve" smooth="yes"/>
      <point x="166" y="-41"/>
      <point x="164" y="-19"/>
      <point x="159" y="0" type="curve"/>
      <point x="48" y="0" type="line"/>
      <point x="48" y="270" type="line"/>
      <point x="305" y="270" type="line"/>
      <point x="305" y="0" type="line" smooth="yes"/>
      <point x="305" y="-100"/>
      <point x="291" y="-175"/>
      <point x="262" y="-268" type="curve"/>
    </contour>
  </outline>
</glyph>
<glyph name="period" format="1">
  <advance width="400"/>
  <unicode hex="002E"/>
  <outline>
    <contour>
      <point x="65" y="0" type="line"/>
      <point x="65" y="260" type="line"/>
      <point x="323" y="260" type="line"/>
      <point x="323" y="0" type="line"/>
    </contour>
  </outline>
</glyph>
<glyph name="slash" format="1">
  <advance width="571"/>
  <unicode hex="002F"/>
  <outline>
    <contour>
      <point x="254" y="1" type="line"/>
      <point x="554" y="1865" type="line"/>
      <point x="319" y="1865" type="line"/>
      <point x="19" y="1" type="line"/>
    </contour>
  </outline>
</glyph>
<glyph name="zero" format="1">
  <advance width="891"/>
  <unicode hex="0030"/>
  <outline>
    <contour>
      <point x="465" y="156" type="curve" smooth="yes"/>
      <point x="335" y="156"/>
      <point x="334" y="437"/>
      <point x="334" y="943" type="curve" smooth="yes"/>
      <point x="334" y="1443"/>
      <point x="335" y="1720"/>
      <point x="465" y="1720" type="curve" smooth="yes"/>
      <point x="595" y="1720"/>
      <point x="596" y="1443"/>
      <point x="596" y="943" type="curve" smooth="yes"/>
      <point x="596" y="437"/>
      <point x="595" y="156"/>
    </contour>
    <contour>
      <point x="465" y="-34" type="curve" smooth="yes"/>
      <point x="714" y="-34"/>
      <point x="830" y="175"/>
      <point x="830" y="943" type="curve" smooth="yes"/>
      <point x="830" y="1703"/>
      <point x="714" y="1910"/>
      <point x="465" y="1910" type="curve" smooth="yes"/>
      <point x="216" y="1910"/>
      <point x="100" y="1703"/>
      <point x="100" y="943" type="curve" smooth="yes"/>
      <point x="100" y="175"/>
      <point x="216" y="-34"/>
    </contour>
  </outline>
</glyph>
<glyph name="one" format="1">
  <advance width="742"/>
  <unicode hex="0031"/>
  <outline>
    <contour>
      <point x="691" y="183" type="line"/>
      <point x="691" y="0" type="line"/>
      <point x="81" y="0" type="line"/>
      <point x="81" y="180" type="line"/>
      <point x="270" y="180" type="line"/>
      <point x="270" y="1722" type="line"/>
      <point x="317" y="1866" type="line"/>
      <point x="510" y="1866" type="line"/>
      <point x="510" y="183" type="line"/>
    </contour>
    <contour>
      <point x="81" y="1826" type="line"/>
      <point x="317" y="1866" type="line"/>
      <point x="317" y="1676" type="line"/>
      <point x="81" y="1646" type="line"/>
    </contour>
  </outline>
</glyph>
<glyph name="two" format="1">
  <advance width="940"/>
  <unicode hex="0032"/>
  <outline>
    <contour>
      <point x="783" y="0" type="line"/>
      <point x="783" y="202" type="line"/>
      <point x="333" y="202" type="line"/>
      <point x="542" y="571"/>
      <point x="815" y="1062"/>
      <point x="815" y="1507" type="curve" smooth="yes"/>
      <point x="815" y="1703"/>
      <point x="735" y="1910"/>
      <point x="504" y="1910" type="curve" smooth="yes"/>
      <point x="239" y="1910"/>
      <point x="135" y="1733"/>
      <point x="135" y="1497" type="curve" smooth="yes"/>
      <point x="135" y="1449"/>
      <point x="140" y="1398"/>
      <point x="148" y="1345" type="curve"/>
      <point x="361" y="1345" type="line"/>
      <point x="354" y="1383"/>
      <point x="350" y="1425"/>
      <point x="350" y="1465" type="curve" smooth="yes"/>
      <point x="350" y="1589"/>
      <point x="385" y="1706"/>
      <point x="475" y="1706" type="curve" smooth="yes"/>
      <point x="564" y="1706"/>
      <point x="582" y="1600"/>
      <point x="582" y="1523" type="curve" smooth="yes"/>
      <point x="582" y="1031"/>
      <point x="294" y="600"/>
      <point x="99" y="169" type="curve"/>
      <point x="99" y="0" type="line"/>
    </contour>
  </outline>
</glyph>
<glyph name="three" format="1">
  <advance width="889"/>
  <unicode hex="0033"/>
  <outline>
    <contour>
      <point x="297" y="36" type="line"/>
      <point x="297" y="15" type="line"/>
      <point x="298" y="18"/>
      <point x="306" y="19"/>
      <point x="309" y="18" type="curve" smooth="yes"/>
      <point x="326" y="11"/>
      <point x="381" y="-2"/>
      <point x="388" y="-2" type="curve"/>
      <point x="440" y="-2" type="line"/>
      <point x="463" y="-2"/>
      <point x="500" y="-3"/>
      <point x="512" y="1" type="curve" smooth="yes"/>
      <point x="536" y="7"/>
      <point x="602" y="26"/>
      <point x="605" y="29" type="curve"/>
      <point x="708" y="98" type="line"/>
      <point x="734" y="136" type="line"/>
      <point x="740" y="142" type="line"/>
      <point x="741" y="143"/>
      <point x="743" y="147"/>
      <point x="743" y="147" type="curve"/>
      <point x="761" y="189" type="line"/>
      <point x="777" y="226" type="line"/>
      <point x="785" y="289"/>
      <point x="795" y="355"/>
      <point x="802" y="418" type="curve"/>
      <point x="803" y="419"/>
      <point x="803" y="508"/>
      <point x="803" y="542" type="curve" smooth="yes"/>
      <point x="803" y="587"/>
      <point x="803" y="723"/>
      <point x="801" y="733" type="curve"/>
      <point x="801" y="753"/>
      <point x="798" y="805"/>
      <point x="796" y="810" type="curve"/>
      <point x="765" y="933" type="line"/>
      <point x="766" y="932" type="line"/>
      <point x="764" y="937"/>
      <point x="741" y="972"/>
      <point x="732" y="985" type="curve"/>
      <point x="720" y="996"/>
      <point x="685" y="1027"/>
      <point x="674" y="1031" type="curve"/>
      <point x="664" y="1047"/>
      <point x="664" y="1053"/>
      <point x="664" y="1059" type="curve"/>
      <point x="664" y="1074" type="line"/>
      <point x="697" y="1100"/>
      <point x="737" y="1145"/>
      <point x="749" y="1188" type="curve"/>
      <point x="749" y="1187" type="line"/>
      <point x="777" y="1322" type="line"/>
      <point x="775" y="1345"/>
      <point x="778" y="1364"/>
      <point x="780" y="1384" type="curve" smooth="yes"/>
      <point x="781" y="1400"/>
      <point x="782" y="1413"/>
      <point x="782" y="1430" type="curve"/>
      <point x="778" y="1439"/>
      <point x="777" y="1452"/>
      <point x="777" y="1454" type="curve" smooth="yes"/>
      <point x="777" y="1457"/>
      <point x="778" y="1464"/>
      <point x="782" y="1471" type="curve"/>
      <point x="782" y="1557" type="line"/>
      <point x="753" y="1783" type="line"/>
      <point x="745" y="1796"/>
      <point x="720" y="1843"/>
      <point x="708" y="1860" type="curve"/>
      <point x="710" y="1859" type="line"/>
      <point x="706" y="1864"/>
      <point x="677" y="1893"/>
      <point x="666" y="1900" type="curve"/>
      <point x="655" y="1911"/>
      <point x="602" y="1948"/>
      <point x="591" y="1954" type="curve"/>
      <point x="592" y="1953" type="line"/>
      <point x="577" y="1959"/>
      <point x="515" y="1975"/>
      <point x="500" y="1978" type="curve" smooth="yes"/>
      <point x="497" y="1978"/>
      <point x="492" y="1979"/>
      <point x="487" y="1979" type="curve" smooth="yes"/>
      <point x="477" y="1980"/>
      <point x="462" y="1980"/>
      <point x="456" y="1980" type="curve" smooth="yes"/>
      <point x="448" y="1980"/>
      <point x="432" y="1979"/>
      <point x="420" y="1978" type="curve"/>
      <point x="410" y="1978" type="line"/>
      <point x="383" y="1973"/>
      <point x="317" y="1958"/>
      <point x="313" y="1955" type="curve"/>
      <point x="314" y="1955" type="line"/>
      <point x="220" y="1884" type="line"/>
      <point x="153" y="1784" type="line"/>
      <point x="145" y="1747"/>
      <point x="134" y="1713"/>
      <point x="126" y="1675" type="curve"/>
      <point x="128" y="1658"/>
      <point x="125" y="1646"/>
      <point x="124" y="1633" type="curve" smooth="yes"/>
      <point x="123" y="1623"/>
      <point x="122" y="1612"/>
      <point x="122" y="1604" type="curve"/>
      <point x="119" y="1594"/>
      <point x="117" y="1549"/>
      <point x="117" y="1537" type="curve"/>
      <point x="121" y="1526"/>
      <point x="122" y="1513"/>
      <point x="122" y="1504" type="curve" smooth="yes"/>
      <point x="122" y="1493"/>
      <point x="119" y="1484"/>
      <point x="117" y="1477" type="curve" smooth="yes"/>
      <point x="116" y="1474"/>
      <point x="115" y="1470"/>
      <point x="115" y="1467" type="curve"/>
      <point x="334" y="1467" type="line"/>
      <point x="334" y="1497" type="line"/>
      <point x="334" y="1503"/>
      <point x="335" y="1534"/>
      <point x="336" y="1565" type="curve"/>
      <point x="336" y="1564" type="line"/>
      <point x="337" y="1597"/>
      <point x="338" y="1631"/>
      <point x="338" y="1639" type="curve" smooth="yes"/>
      <point x="340" y="1701"/>
      <point x="373" y="1775"/>
      <point x="447" y="1775" type="curve" smooth="yes"/>
      <point x="502" y="1775"/>
      <point x="526" y="1751"/>
      <point x="550" y="1707" type="curve"/>
      <point x="553" y="1686" type="line"/>
      <point x="558" y="1661"/>
      <point x="564" y="1623"/>
      <point x="564" y="1609" type="curve"/>
      <point x="564" y="1492" type="line"/>
      <point x="562" y="1461"/>
      <point x="550" y="1317"/>
      <point x="546" y="1286" type="curve"/>
      <point x="520" y="1207"/>
      <point x="479" y="1163"/>
      <point x="400" y="1147" type="curve" smooth="yes"/>
      <point x="394" y="1146"/>
      <point x="384" y="1146"/>
      <point x="376" y="1146" type="curve" smooth="yes"/>
      <point x="360" y="1146"/>
      <point x="342" y="1146"/>
      <point x="342" y="1140" type="curve"/>
      <point x="342" y="1137" type="line"/>
      <point x="344" y="1120"/>
      <point x="346" y="1038"/>
      <point x="346" y="1030" type="curve" smooth="yes"/>
      <point x="346" y="1015"/>
      <point x="343" y="951"/>
      <point x="341" y="931" type="curve"/>
      <point x="341" y="932"/>
      <point x="342" y="932"/>
      <point x="343" y="931" type="curve"/>
      <point x="458" y="911" type="line"/>
      <point x="457" y="911" type="line"/>
      <point x="469" y="909"/>
      <point x="488" y="894"/>
      <point x="502" y="886" type="curve"/>
      <point x="512" y="879" type="line"/>
      <point x="530" y="863"/>
      <point x="560" y="826"/>
      <point x="564" y="797" type="curve"/>
      <point x="576" y="702" type="line"/>
      <point x="576" y="420" type="line"/>
      <point x="554" y="291" type="line"/>
      <point x="545" y="247"/>
      <point x="492" y="205"/>
      <point x="449" y="205" type="curve" smooth="yes"/>
      <point x="407" y="205"/>
      <point x="357" y="238"/>
      <point x="346" y="282" type="curve"/>
      <point x="325" y="374" type="line"/>
      <point x="325" y="541" type="line"/>
      <point x="316" y="542"/>
      <point x="296" y="544"/>
      <point x="293" y="544" type="curve"/>
      <point x="96" y="544" type="line"/>
      <point x="96" y="522" type="line"/>
      <point x="96" y="474"/>
      <point x="96" y="426"/>
      <point x="100" y="378" type="curve" smooth="yes"/>
      <point x="102" y="346"/>
      <point x="109" y="266"/>
      <point x="111" y="264" type="curve"/>
      <point x="165" y="125" type="line"/>
      <point x="174" y="114"/>
      <point x="196" y="86"/>
      <point x="207" y="77" type="curve" smooth="yes"/>
      <point x="221" y="65"/>
      <point x="263" y="36"/>
      <point x="268" y="36" type="curve"/>
    </contour>
    <contour>
      <point x="100" y="553" type="line"/>
      <point x="96" y="545" type="line"/>
      <point x="96" y="544" type="line"/>
      <point x="86" y="544" type="line"/>
    </contour>
    <contour>
      <point x="116" y="1459" type="curve"/>
      <point x="105" y="1470" type="line"/>
      <point x="113" y="1467" type="line"/>
      <point x="115" y="1467" type="line"/>
      <point x="115" y="1464" type="line"/>
      <point x="115" y="1462"/>
      <point x="116" y="1459"/>
    </contour>
    <contour>
      <point x="334" y="1460" type="curve"/>
      <point x="334" y="1467" type="line"/>
      <point x="343" y="1467" type="line"/>
      <point x="339" y="1466"/>
      <point x="334" y="1462"/>
    </contour>
    <contour>
      <point x="787" y="1418" type="line"/>
      <point x="785" y="1419"/>
      <point x="783" y="1425"/>
      <point x="782" y="1430" type="curve"/>
    </contour>
    <contour>
      <point x="326" y="540" type="curve"/>
      <point x="325" y="541" type="line"/>
      <point x="325" y="542" type="line"/>
      <point x="325" y="541"/>
      <point x="326" y="541"/>
    </contour>
    <contour>
      <point x="328" y="540" type="line"/>
      <point x="326" y="540" type="line"/>
    </contour>
    <contour>
      <point x="325" y="87" type="curve"/>
      <point x="325" y="62"/>
      <point x="338" y="59"/>
      <point x="352" y="75" type="curve"/>
      <point x="345" y="72"/>
      <point x="336" y="76"/>
    </contour>
    <contour>
      <point x="362" y="93" type="line"/>
      <point x="362" y="83"/>
      <point x="358" y="77"/>
      <point x="352" y="75" type="curve"/>
      <point x="359" y="84" type="line"/>
    </contour>
    <contour>
      <point x="338" y="119" type="curve" smooth="yes"/>
      <point x="340" y="119"/>
      <point x="340" y="82"/>
      <point x="338" y="82" type="curve" smooth="yes"/>
      <point x="336" y="82"/>
      <point x="336" y="119"/>
    </contour>
    <contour>
      <point x="338" y="131" type="curve" smooth="yes"/>
      <point x="340" y="131"/>
      <point x="340" y="94"/>
      <point x="338" y="94" type="curve" smooth="yes"/>
      <point x="336" y="94"/>
      <point x="336" y="131"/>
    </contour>
    <contour>
      <point x="559" y="218" type="line"/>
      <point x="618" y="218" type="line"/>
      <point x="618" y="158" type="line"/>
    </contour>
    <contour>
      <point x="618" y="292" type="line"/>
      <point x="616" y="292"/>
      <point x="616" y="327"/>
      <point x="618" y="327" type="curve"/>
    </contour>
    <contour>
      <point x="225" y="411" type="line"/>
      <point x="223" y="411"/>
      <point x="223" y="446"/>
      <point x="225" y="446" type="curve"/>
    </contour>
    <contour>
      <point x="146" y="503" type="line"/>
      <point x="174" y="503"/>
      <point x="183" y="485"/>
      <point x="183" y="485" type="curve"/>
      <point x="183" y="478"/>
      <point x="164" y="457"/>
      <point x="146" y="457" type="curve"/>
    </contour>
    <contour>
      <point x="743" y="707" type="line"/>
      <point x="741" y="707"/>
      <point x="741" y="742"/>
      <point x="743" y="742" type="curve"/>
    </contour>
    <contour>
      <point x="769" y="1417" type="line"/>
      <point x="767" y="1417"/>
      <point x="767" y="1452"/>
      <point x="769" y="1452" type="curve"/>
    </contour>
    <contour>
      <point x="777" y="1443" type="line"/>
      <point x="775" y="1443"/>
      <point x="775" y="1478"/>
      <point x="777" y="1478" type="curve"/>
    </contour>
    <contour>
      <point x="251" y="1497" type="curve" smooth="yes"/>
      <point x="253" y="1497"/>
      <point x="253" y="1460"/>
      <point x="251" y="1460" type="curve" smooth="yes"/>
      <point x="249" y="1460"/>
      <point x="249" y="1497"/>
    </contour>
    <contour>
      <point x="254" y="1538" type="line"/>
      <point x="257" y="1535"/>
      <point x="259" y="1529"/>
      <point x="258" y="1523" type="curve"/>
      <point x="257" y="1529"/>
      <point x="254" y="1535"/>
      <point x="250" y="1539" type="curve"/>
    </contour>
    <contour>
      <point x="243" y="1543" type="curve"/>
      <point x="250" y="1539" type="line"/>
      <point x="248" y="1541"/>
      <point x="245" y="1543"/>
    </contour>
    <contour>
      <point x="293" y="1700" type="line"/>
      <point x="291" y="1700"/>
      <point x="291" y="1735"/>
      <point x="293" y="1735" type="curve"/>
    </contour>
  </outline>
</glyph>
<glyph name="four" format="1">
  <advance width="983"/>
  <unicode hex="0034"/>
  <outline>
    <contour>
      <point x="499" y="38" type="line"/>
      <point x="499" y="0" type="line"/>
      <point x="715" y="0" type="line"/>
      <point x="715" y="421" type="line"/>
      <point x="863" y="421" type="line"/>
      <point x="863" y="614" type="line"/>
      <point x="722" y="614" type="line"/>
      <point x="722" y="1866" type="line"/>
      <point x="515" y="1866" type="line"/>
      <point x="90" y="636" type="line"/>
      <point x="90" y="425" type="line"/>
      <point x="499" y="425" type="line"/>
    </contour>
    <contour>
      <point x="268" y="614" type="line"/>
      <point x="499" y="1381" type="line"/>
      <point x="499" y="614" type="line"/>
    </contour>
  </outline>
</glyph>
<glyph name="five" format="1">
  <advance width="889"/>
  <unicode hex="0035"/>
  <outline>
    <contour>
      <point x="447" y="-35" type="curve" smooth="yes"/>
      <point x="778" y="-35"/>
      <point x="775" y="395"/>
      <point x="778" y="663" type="curve"/>
      <point x="778" y="1000"/>
      <point x="741" y="1284"/>
      <point x="521" y="1284" type="curve" smooth="yes"/>
      <point x="438" y="1284"/>
      <point x="361" y="1230"/>
      <point x="336" y="1155" type="curve"/>
      <point x="345" y="1665" type="line"/>
      <point x="752" y="1665" type="line"/>
      <point x="752" y="1866" type="line"/>
      <point x="163" y="1866" type="line"/>
      <point x="163" y="924" type="line"/>
      <point x="327" y="917" type="line"/>
      <point x="338" y="1054"/>
      <point x="378" y="1114"/>
      <point x="455" y="1114" type="curve" smooth="yes"/>
      <point x="533" y="1114"/>
      <point x="559" y="1032"/>
      <point x="559" y="663" type="curve"/>
      <point x="551" y="325"/>
      <point x="570" y="135"/>
      <point x="434" y="135" type="curve" smooth="yes"/>
      <point x="338" y="135"/>
      <point x="309" y="230"/>
      <point x="309" y="349" type="curve" smooth="yes"/>
      <point x="309" y="401"/>
      <point x="315" y="458"/>
      <point x="323" y="514" type="curve"/>
      <point x="131" y="514" type="line"/>
      <point x="120" y="459"/>
      <point x="114" y="401"/>
      <point x="114" y="344" type="curve" smooth="yes"/>
      <point x="114" y="149"/>
      <point x="191" y="-35"/>
    </contour>
  </outline>
</glyph>
<glyph name="six" format="1">
  <advance width="915"/>
  <unicode hex="0036"/>
  <outline>
    <contour>
      <point x="455" y="-34" type="curve" smooth="yes"/>
      <point x="805" y="-34"/>
      <point x="817" y="250"/>
      <point x="817" y="609" type="curve" smooth="yes"/>
      <point x="817" y="852"/>
      <point x="811" y="1136"/>
      <point x="511" y="1136" type="curve" smooth="yes"/>
      <point x="472" y="1136"/>
      <point x="374" y="1125"/>
      <point x="332" y="1036" type="curve"/>
      <point x="332" y="1563"/>
      <point x="332" y="1732"/>
      <point x="466" y="1732" type="curve" smooth="yes"/>
      <point x="550" y="1732"/>
      <point x="569" y="1658"/>
      <point x="569" y="1573" type="curve" smooth="yes"/>
      <point x="569" y="1519"/>
      <point x="561" y="1462"/>
      <point x="557" y="1416" type="curve"/>
      <point x="770" y="1416" type="line"/>
      <point x="778" y="1468"/>
      <point x="783" y="1517"/>
      <point x="783" y="1564" type="curve" smooth="yes"/>
      <point x="783" y="1770"/>
      <point x="694" y="1910"/>
      <point x="461" y="1910" type="curve" smooth="yes"/>
      <point x="102" y="1910"/>
      <point x="102" y="1579"/>
      <point x="102" y="909" type="curve" smooth="yes"/>
      <point x="102" y="247"/>
      <point x="102" y="-34"/>
    </contour>
    <contour>
      <point x="332" y="568" type="curve"/>
      <point x="332" y="902" type="line"/>
      <point x="332" y="902"/>
      <point x="423" y="966"/>
      <point x="472" y="966" type="curve" smooth="yes"/>
      <point x="595" y="966"/>
      <point x="587" y="786"/>
      <point x="587" y="612" type="curve" smooth="yes"/>
      <point x="587" y="325"/>
      <point x="583" y="141"/>
      <point x="459" y="141" type="curve" smooth="yes"/>
      <point x="353" y="141"/>
      <point x="332" y="262"/>
    </contour>
  </outline>
</glyph>
<glyph name="seven" format="1">
  <advance width="791"/>
  <unicode hex="0037"/>
  <outline>
    <contour>
      <point x="196" y="0" type="line"/>
      <point x="437" y="0" type="line"/>
      <point x="727" y="1729" type="line"/>
      <point x="727" y="1866" type="line"/>
      <point x="82" y="1866" type="line"/>
      <point x="82" y="1669" type="line"/>
      <point x="506" y="1669" type="line"/>
    </contour>
  </outline>
</glyph>
<glyph name="eight" format="1">
  <advance width="872"/>
  <unicode hex="0038"/>
  <outline>
    <contour>
      <point x="449" y="-35" type="curve" smooth="yes"/>
      <point x="598" y="-35"/>
      <point x="811" y="6"/>
      <point x="811" y="515" type="curve" smooth="yes"/>
      <point x="811" y="903"/>
      <point x="676" y="969"/>
      <point x="627" y="1000" type="curve"/>
      <point x="774" y="1056"/>
      <point x="793" y="1401"/>
      <point x="793" y="1399" type="curve" smooth="yes"/>
      <point x="793" y="1656"/>
      <point x="757" y="1910"/>
      <point x="449" y="1910" type="curve" smooth="yes"/>
      <point x="141" y="1910"/>
      <point x="105" y="1656"/>
      <point x="105" y="1399" type="curve" smooth="yes"/>
      <point x="105" y="1401"/>
      <point x="124" y="1056"/>
      <point x="271" y="1000" type="curve"/>
      <point x="222" y="969"/>
      <point x="87" y="903"/>
      <point x="87" y="515" type="curve" smooth="yes"/>
      <point x="87" y="6"/>
      <point x="300" y="-35"/>
    </contour>
    <contour>
      <point x="449" y="910" type="curve" smooth="yes"/>
      <point x="528" y="910"/>
      <point x="579" y="817"/>
      <point x="579" y="518" type="curve" smooth="yes"/>
      <point x="579" y="238"/>
      <point x="534" y="136"/>
      <point x="449" y="136" type="curve" smooth="yes"/>
      <point x="364" y="136"/>
      <point x="319" y="238"/>
      <point x="319" y="518" type="curve" smooth="yes"/>
      <point x="319" y="817"/>
      <point x="370" y="910"/>
    </contour>
    <contour>
      <point x="449" y="1745" type="curve" smooth="yes"/>
      <point x="572" y="1745"/>
      <point x="572" y="1547"/>
      <point x="572" y="1430" type="curve" smooth="yes"/>
      <point x="572" y="1235"/>
      <point x="559" y="1070"/>
      <point x="449" y="1070" type="curve" smooth="yes"/>
      <point x="339" y="1070"/>
      <point x="326" y="1235"/>
      <point x="326" y="1430" type="curve" smooth="yes"/>
      <point x="326" y="1547"/>
      <point x="326" y="1745"/>
    </contour>
  </outline>
</glyph>
<glyph name="nine" format="1">
  <advance width="915"/>
  <unicode hex="0039"/>
  <outline>
    <contour>
      <point x="464" y="1910" type="curve" smooth="yes"/>
      <point x="114" y="1910"/>
      <point x="102" y="1626"/>
      <point x="102" y="1267" type="curve" smooth="yes"/>
      <point x="102" y="1019"/>
      <point x="108" y="730"/>
      <point x="408" y="730" type="curve" smooth="yes"/>
      <point x="447" y="730"/>
      <point x="545" y="741"/>
      <point x="587" y="830" type="curve"/>
      <point x="587" y="311"/>
      <point x="587" y="144"/>
      <point x="453" y="144" type="curve" smooth="yes"/>
      <point x="369" y="144"/>
      <point x="350" y="218"/>
      <point x="350" y="303" type="curve" smooth="yes"/>
      <point x="350" y="357"/>
      <point x="358" y="414"/>
      <point x="362" y="460" type="curve"/>
      <point x="149" y="460" type="line"/>
      <point x="141" y="408"/>
      <point x="136" y="359"/>
      <point x="136" y="312" type="curve" smooth="yes"/>
      <point x="136" y="106"/>
      <point x="225" y="-34"/>
      <point x="458" y="-34" type="curve" smooth="yes"/>
      <point x="817" y="-34"/>
      <point x="817" y="297"/>
      <point x="817" y="967" type="curve" smooth="yes"/>
      <point x="817" y="1629"/>
      <point x="817" y="1910"/>
    </contour>
    <contour>
      <point x="587" y="1308" type="curve"/>
      <point x="587" y="964" type="line"/>
      <point x="587" y="964"/>
      <point x="496" y="900"/>
      <point x="447" y="900" type="curve" smooth="yes"/>
      <point x="324" y="900"/>
      <point x="332" y="1085"/>
      <point x="332" y="1264" type="curve" smooth="yes"/>
      <point x="332" y="1551"/>
      <point x="336" y="1735"/>
      <point x="460" y="1735" type="curve" smooth="yes"/>
      <point x="566" y="1735"/>
      <point x="587" y="1614"/>
    </contour>
  </outline>
</glyph>
<glyph name="colon" format="1">
  <advance width="400"/>
  <unicode hex="003A"/>
  <outline>
    <contour>
      <point x="47" y="1073" type="line"/>
      <point x="47" y="1333" type="line"/>
      <point x="305" y="1333" type="line"/>
      <point x="305" y="1073" type="line"/>
    </contour>
    <contour>
      <point x="47" y="94" type="line"/>
      <point x="47" y="354" type="line"/>
      <point x="305" y="354" type="line"/>
      <point x="305" y="94" type="line"/>
    </contour>
  </outline>
</glyph>
<glyph name="semicolon" format="1">
  <advance width="400"/>
  <unicode hex="003B"/>
  <outline>
    <contour>
      <point x="47" y="1073" type="line"/>
      <point x="47" y="1333" type="line"/>
      <point x="305" y="1333" type="line"/>
      <point x="305" y="1073" type="line"/>
    </contour>
    <contour>
      <point x="136" y="-173" type="line"/>
      <point x="147" y="-115"/>
      <point x="166" y="-37"/>
      <point x="166" y="31" type="curve" smooth="yes"/>
      <point x="166" y="54"/>
      <point x="164" y="76"/>
      <point x="159" y="95" type="curve"/>
      <point x="48" y="95" type="line"/>
      <point x="48" y="365" type="line"/>
      <point x="305" y="365" type="line"/>
      <point x="305" y="95" type="line"/>
      <point x="300" y="-5"/>
      <point x="291" y="-80"/>
      <point x="262" y="-173" type="curve"/>
    </contour>
  </outline>
</glyph>
<glyph name="equal" format="1">
  <advance width="725"/>
  <unicode hex="003D"/>
  <outline>
    <contour>
      <point x="612" y="1034" type="line"/>
      <point x="612" y="855" type="line"/>
      <point x="0" y="855" type="line"/>
      <point x="0" y="1033" type="line"/>
    </contour>
    <contour>
      <point x="612" y="752" type="line"/>
      <point x="612" y="574" type="line"/>
      <point x="0" y="574" type="line"/>
      <point x="0" y="752" type="line"/>
    </contour>
  </outline>
</glyph>
<glyph name="A" format="1">
  <advance width="810"/>
  <unicode hex="0041"/>
  <outline>
    <contour>
      <point x="255" y="1866" type="line"/>
      <point x="16" y="0" type="line"/>
      <point x="242" y="0" type="line"/>
      <point x="274" y="315" type="line"/>
      <point x="517" y="315" type="line"/>
      <point x="546" y="0" type="line"/>
      <point x="790" y="0" type="line"/>
      <point x="549" y="1866" type="line"/>
    </contour>
    <contour>
      <point x="292" y="494" type="line"/>
      <point x="397" y="1452" type="line"/>
      <point x="410" y="1452" type="line"/>
      <point x="496" y="494" type="line"/>
    </contour>
  </outline>
</glyph>
<glyph name="B" format="1">
  <advance width="909"/>
  <unicode hex="0042"/>
  <outline>
    <contour>
      <point x="864" y="532" type="curve"/>
      <point x="860" y="767"/>
      <point x="805" y="955"/>
      <point x="625" y="1006" type="curve"/>
      <point x="623" y="1018" type="line"/>
      <point x="766" y="1057"/>
      <point x="797" y="1209"/>
      <point x="797" y="1393" type="curve" smooth="yes"/>
      <point x="797" y="1666"/>
      <point x="737" y="1866"/>
      <point x="473" y="1866" type="curve" smooth="yes"/>
      <point x="90" y="1866" type="line"/>
      <point x="90" y="0" type="line"/>
      <point x="559" y="0" type="line"/>
      <point x="821" y="12"/>
      <point x="859" y="258"/>
    </contour>
    <contour>
      <point x="432" y="162" type="line"/>
      <point x="330" y="162" type="line"/>
      <point x="330" y="922" type="line"/>
      <point x="453" y="922" type="line" smooth="yes"/>
      <point x="508" y="922"/>
      <point x="536" y="881"/>
      <point x="556" y="834" type="curve" smooth="yes"/>
      <point x="590" y="756"/>
      <point x="599" y="654"/>
      <point x="599" y="531" type="curve" smooth="yes"/>
      <point x="599" y="346"/>
      <point x="613" y="161"/>
      <point x="431" y="161" type="curve"/>
    </contour>
    <contour>
      <point x="552" y="1392" type="curve" smooth="yes"/>
      <point x="552" y="1282"/>
      <point x="561" y="1082"/>
      <point x="452" y="1082" type="curve" smooth="yes"/>
      <point x="329" y="1082" type="line"/>
      <point x="329" y="1717" type="line"/>
      <point x="411" y="1717" type="line" smooth="yes"/>
      <point x="564" y="1717"/>
      <point x="552" y="1548"/>
    </contour>
  </outline>
</glyph>
<glyph name="B" format="1">
  <advance width="912"/>
  <unicode hex="0042"/>
  <outline>
    <contour>
      <point x="864" y="532" type="curve" smooth="yes"/>
      <point x="864" y="185.4"/>
      <point x="779" y="0"/>
      <point x="509" y="0" type="curve" smooth="yes"/>
      <point x="90" y="0" type="line"/>
      <point x="90" y="1866" type="line"/>
      <point x="467" y="1866" type="line" smooth="yes"/>
      <point x="731.286" y="1866"/>
      <point x="791" y="1666.23"/>
      <point x="791" y="1393" type="curve" smooth="yes"/>
      <point x="791" y="1145.4"/>
      <point x="766.112" y="1057.29"/>
      <point x="623" y="1018" type="curve"/>
      <point x="625" y="1006" type="line"/>
      <point x="802.299" y="965.942"/>
      <point x="864" y="836.4"/>
    </contour>
    <contour>
      <point x="402" y="162" type="line" smooth="yes"/>
      <point x="584.404" y="162"/>
      <point x="600" y="272.4"/>
      <point x="600" y="532" type="curve" smooth="yes"/>
      <point x="600" y="827.4"/>
      <point x="570" y="922"/>
      <point x="433" y="922" type="curve" smooth="yes"/>
      <point x="330" y="922" type="line"/>
      <point x="330" y="162" type="line"/>
    </contour>
    <contour>
      <point x="547" y="1393" type="curve" smooth="yes"/>
      <point x="547" y="1607.4"/>
      <point x="531" y="1718"/>
      <point x="406" y="1718" type="curve" smooth="yes"/>
      <point x="330" y="1718" type="line"/>
      <point x="330" y="1083" type="line"/>
      <point x="433" y="1083" type="line" smooth="yes"/>
      <point x="541.852" y="1083"/>
      <point x="547" y="1193.4"/>
    </contour>
  </outline>
</glyph>
<glyph name="C" format="1">
  <advance width="886"/>
  <unicode hex="0043"/>
  <outline>
    <contour>
      <point x="459" y="1905" type="line"/>
      <point x="-13" y="1917"/>
      <point x="79" y="1385"/>
      <point x="62" y="938" type="curve"/>
      <point x="79" y="489"/>
      <point x="-13" y="-41"/>
      <point x="459" y="-29" type="curve"/>
      <point x="874" y="-40"/>
      <point x="810" y="410"/>
      <point x="822" y="799" type="curve"/>
      <point x="582" y="799" type="line"/>
      <point x="582" y="606"/>
      <point x="588" y="438"/>
      <point x="568" y="287" type="curve" smooth="yes"/>
      <point x="557" y="204"/>
      <point x="539" y="130"/>
      <point x="460" y="130" type="curve" smooth="yes"/>
      <point x="372" y="130"/>
      <point x="352" y="222"/>
      <point x="339" y="317" type="curve"/>
      <point x="317" y="503"/>
      <point x="324" y="701"/>
      <point x="322" y="938" type="curve"/>
      <point x="324" y="1178"/>
      <point x="317" y="1379"/>
      <point x="339" y="1566" type="curve"/>
      <point x="352" y="1661"/>
      <point x="372" y="1752"/>
      <point x="460" y="1752" type="curve" smooth="yes"/>
      <point x="568" y="1752"/>
      <point x="573" y="1626"/>
      <point x="573" y="1512" type="curve" smooth="yes"/>
      <point x="573" y="1410"/>
      <point x="564" y="1314"/>
      <point x="555" y="1207" type="curve"/>
      <point x="798" y="1207" type="line"/>
      <point x="804" y="1289"/>
      <point x="809" y="1369"/>
      <point x="809" y="1451" type="curve"/>
      <point x="814" y="1732"/>
      <point x="742" y="1912"/>
      <point x="461" y="1904" type="curve"/>
    </contour>
  </outline>
</glyph>
<glyph name="D" format="1">
  <advance width="896"/>
  <unicode hex="0044"/>
  <outline>
    <contour>
      <point x="829" y="959" type="curve" smooth="yes"/>
      <point x="829" y="1459"/>
      <point x="798" y="1866"/>
      <point x="451" y="1866" type="curve" smooth="yes"/>
      <point x="90" y="1866" type="line"/>
      <point x="90" y="0" type="line"/>
      <point x="429" y="0" type="line"/>
      <point x="813" y="-7"/>
      <point x="828" y="269"/>
    </contour>
    <contour>
      <point x="330" y="160" type="line"/>
      <point x="330" y="1708" type="line"/>
      <point x="434" y="1708" type="line" smooth="yes"/>
      <point x="548" y="1708"/>
      <point x="587" y="1532"/>
      <point x="587" y="928" type="curve" smooth="yes"/>
      <point x="587" y="376"/>
      <point x="569" y="157"/>
      <point x="429" y="157" type="curve" smooth="yes"/>
      <point x="391" y="157"/>
      <point x="369" y="158"/>
      <point x="330" y="159" type="curve"/>
    </contour>
  </outline>
</glyph>
<glyph name="D" format="1">
  <advance width="899"/>
  <unicode hex="0044"/>
  <outline>
    <contour>
      <point x="830.014" y="959.312" type="curve" smooth="yes"/>
      <point x="829.507" y="268.926"/>
      <point x="814.21" y="-7.2373"/>
      <point x="430" y="0" type="curve"/>
      <point x="91" y="0" type="line"/>
      <point x="91" y="1866" type="line"/>
      <point x="452" y="1866" type="line" smooth="yes"/>
      <point x="798.786" y="1866"/>
      <point x="830.014" y="1458.98"/>
    </contour>
    <contour>
      <point x="331" y="160" type="line"/>
      <point x="369.991" y="158.555"/>
      <point x="392.017" y="158"/>
      <point x="430" y="158" type="curve" smooth="yes"/>
      <point x="569.667" y="158"/>
      <point x="588" y="377.351"/>
      <point x="588" y="928.851" type="curve" smooth="yes"/>
      <point x="588" y="1532.35"/>
      <point x="548.667" y="1708"/>
      <point x="435" y="1708" type="curve" smooth="yes"/>
      <point x="331" y="1708" type="line"/>
    </contour>
  </outline>
</glyph>
<glyph name="E" format="1">
  <advance width="726"/>
  <unicode hex="0045"/>
  <outline>
    <contour>
      <point x="631" y="1866" type="line"/>
      <point x="90" y="1866" type="line"/>
      <point x="90" y="0" type="line"/>
      <point x="707" y="0" type="line"/>
      <point x="707" y="180" type="line"/>
      <point x="330" y="180" type="line"/>
      <point x="330" y="872" type="line"/>
      <point x="602" y="872" type="line"/>
      <point x="602" y="1051" type="line"/>
      <point x="330" y="1051" type="line"/>
      <point x="330" y="1686" type="line"/>
      <point x="631" y="1686" type="line"/>
    </contour>
  </outline>
</glyph>
<glyph name="G" format="1">
  <advance width="912"/>
  <unicode hex="0047"/>
  <outline>
    <contour>
      <point x="456" y="-35" type="line"/>
      <point x="602" y="-35"/>
      <point x="672" y="36"/>
      <point x="723" y="147" type="curve"/>
      <point x="792" y="0" type="line"/>
      <point x="837" y="0" type="line"/>
      <point x="837" y="976" type="line"/>
      <point x="434" y="976" type="line"/>
      <point x="434" y="806" type="line"/>
      <point x="608" y="806" type="line"/>
      <point x="610" y="455" type="line"/>
      <point x="610" y="324"/>
      <point x="624" y="127"/>
      <point x="477" y="127" type="curve" smooth="yes"/>
      <point x="379" y="127"/>
      <point x="363" y="202"/>
      <point x="345" y="311" type="curve" smooth="yes"/>
      <point x="314" y="506"/>
      <point x="319" y="735"/>
      <point x="319" y="989" type="curve" smooth="yes"/>
      <point x="319" y="1218"/>
      <point x="314" y="1406"/>
      <point x="336" y="1583" type="curve" smooth="yes"/>
      <point x="347" y="1674"/>
      <point x="368" y="1754"/>
      <point x="453" y="1754" type="curve" smooth="yes"/>
      <point x="523" y="1754"/>
      <point x="547" y="1706"/>
      <point x="564" y="1641" type="curve" smooth="yes"/>
      <point x="593" y="1526"/>
      <point x="578" y="1381"/>
      <point x="568" y="1232" type="curve"/>
      <point x="790" y="1232" type="line"/>
      <point x="838" y="1577"/>
      <point x="813" y="1908"/>
      <point x="455" y="1908" type="curve" smooth="yes"/>
      <point x="30" y="1908"/>
      <point x="58" y="1403"/>
      <point x="58" y="937" type="curve" smooth="yes"/>
      <point x="58" y="428"/>
      <point x="45" y="-36"/>
      <point x="455" y="-36" type="curve"/>
    </contour>
  </outline>
</glyph>
<glyph name="H" format="1">
  <advance width="922"/>
  <unicode hex="0048"/>
  <outline>
    <contour>
      <point x="830" y="1866" type="line"/>
      <point x="830" y="0" type="line"/>
      <point x="590" y="0" type="line"/>
      <point x="590" y="850" type="line"/>
      <point x="330" y="850" type="line"/>
      <point x="330" y="0" type="line"/>
      <point x="90" y="0" type="line"/>
      <point x="90" y="1866" type="line"/>
      <point x="330" y="1866" type="line"/>
      <point x="330" y="1063" type="line"/>
      <point x="590" y="1063" type="line"/>
      <point x="590" y="1866" type="line"/>
    </contour>
  </outline>
</glyph>
<glyph name="J" format="1">
  <advance width="515"/>
  <unicode hex="004A"/>
  <outline>
    <contour>
      <point x="5" y="199" type="line"/>
      <point x="5" y="-12" type="line"/>
      <point x="339" y="-29"/>
      <point x="433" y="192"/>
      <point x="431" y="517" type="curve"/>
      <point x="431" y="1867" type="line"/>
      <point x="192" y="1867" type="line"/>
      <point x="192" y="484" type="line" smooth="yes"/>
      <point x="192" y="316"/>
      <point x="174" y="194"/>
      <point x="5" y="201" type="curve"/>
    </contour>
  </outline>
</glyph>
<glyph name="K" format="1">
  <advance width="830"/>
  <unicode hex="004B"/>
  <outline>
    <contour>
      <point x="791" y="1866" type="line"/>
      <point x="551" y="1866" type="line"/>
      <point x="330" y="1114" type="line"/>
      <point x="330" y="1866" type="line"/>
      <point x="90" y="1866" type="line"/>
      <point x="90" y="0" type="line"/>
      <point x="330" y="0" type="line"/>
      <point x="330" y="655" type="line"/>
      <point x="404" y="918" type="line"/>
      <point x="572" y="0" type="line"/>
      <point x="811" y="0" type="line"/>
      <point x="580" y="1153" type="line"/>
    </contour>
  </outline>
</glyph>
<glyph name="K" format="1">
  <advance width="833"/>
  <unicode hex="004B"/>
  <outline>
    <contour>
      <point x="791" y="1866" type="line"/>
      <point x="578" y="1046" type="line"/>
      <point x="819" y="0" type="line"/>
      <point x="575" y="0" type="line"/>
      <point x="394" y="858" type="line"/>
      <point x="330" y="655" type="line"/>
      <point x="330" y="0" type="line"/>
      <point x="90" y="0" type="line"/>
      <point x="90" y="1866" type="line"/>
      <point x="330" y="1866" type="line"/>
      <point x="330" y="964" type="line"/>
      <point x="551" y="1866" type="line"/>
    </contour>
  </outline>
</glyph>
<glyph name="N" format="1">
  <advance width="896"/>
  <unicode hex="004E"/>
  <outline>
    <contour>
      <point x="328" y="1866" type="line"/>
      <point x="90" y="1866" type="line"/>
      <point x="90" y="0" type="line"/>
      <point x="305" y="0" type="line"/>
      <point x="305" y="1190" type="line"/>
      <point x="318" y="1192" type="line"/>
      <point x="600" y="0" type="line"/>
      <point x="805" y="0" type="line"/>
      <point x="805" y="1866" type="line"/>
      <point x="594" y="1866" type="line"/>
      <point x="594" y="750" type="line"/>
      <point x="582" y="748" type="line"/>
    </contour>
  </outline>
</glyph>
<glyph name="O" format="1">
  <advance width="925"/>
  <unicode hex="004F"/>
  <outline>
    <contour>
      <point x="455" y="1737" type="line"/>
      <point x="508" y="1737"/>
      <point x="535" y="1716"/>
      <point x="553" y="1676" type="curve"/>
      <point x="613" y="1474"/>
      <point x="587" y="1207"/>
      <point x="593" y="938" type="curve"/>
      <point x="590" y="704"/>
      <point x="601" y="485"/>
      <point x="576" y="291" type="curve"/>
      <point x="564" y="207"/>
      <point x="545" y="136"/>
      <point x="455" y="136" type="curve" smooth="yes"/>
      <point x="402" y="136"/>
      <point x="376" y="158"/>
      <point x="358" y="198" type="curve"/>
      <point x="298" y="401"/>
      <point x="324" y="669"/>
      <point x="317" y="939" type="curve"/>
      <point x="320" y="1173"/>
      <point x="310" y="1390"/>
      <point x="334" y="1585" type="curve"/>
      <point x="346" y="1669"/>
      <point x="366" y="1739"/>
      <point x="455" y="1739" type="curve"/>
    </contour>
    <contour>
      <point x="853" y="940" type="line"/>
      <point x="853" y="1392"/>
      <point x="893" y="1911"/>
      <point x="454" y="1911" type="curve" smooth="yes"/>
      <point x="46" y="1911"/>
      <point x="56" y="1386"/>
      <point x="56" y="940" type="curve" smooth="yes"/>
      <point x="56" y="489"/>
      <point x="30" y="-33"/>
      <point x="452" y="-33" type="curve" smooth="yes"/>
      <point x="881" y="-33"/>
      <point x="849" y="516"/>
      <point x="849" y="940" type="curve"/>
    </contour>
  </outline>
</glyph>
<glyph name="P" format="1">
  <advance width="862"/>
  <unicode hex="0050"/>
  <outline>
    <contour>
      <point x="455" y="1866" type="curve"/>
      <point x="90" y="1866" type="line"/>
      <point x="90" y="0" type="line"/>
      <point x="330" y="0" type="line"/>
      <point x="330" y="891" type="line"/>
      <point x="332" y="850" type="line"/>
      <point x="673" y="838"/>
      <point x="819" y="1019"/>
      <point x="817" y="1354" type="curve"/>
      <point x="817" y="1656"/>
      <point x="756" y="1866"/>
    </contour>
    <contour>
      <point x="330" y="1016" type="curve"/>
      <point x="330" y="1722" type="line"/>
      <point x="408" y="1722" type="line" smooth="yes"/>
      <point x="575" y="1722"/>
      <point x="569" y="1523"/>
      <point x="569" y="1352" type="curve"/>
      <point x="579" y="1132"/>
      <point x="557" y="997"/>
    </contour>
  </outline>
</glyph>
<glyph name="Q" format="1">
  <advance width="929"/>
  <unicode hex="0051"/>
  <outline>
    <contour>
      <point x="459" y="1778" type="line"/>
      <point x="548" y="1778"/>
      <point x="567" y="1682"/>
      <point x="580" y="1584" type="curve"/>
      <point x="602" y="1391"/>
      <point x="595" y="1184"/>
      <point x="597" y="938" type="curve"/>
      <point x="595" y="691"/>
      <point x="602" y="482"/>
      <point x="580" y="288" type="curve"/>
      <point x="567" y="190"/>
      <point x="548" y="94"/>
      <point x="458" y="94" type="curve" smooth="yes"/>
      <point x="369" y="94"/>
      <point x="350" y="191"/>
      <point x="337" y="289" type="curve"/>
      <point x="315" y="484"/>
      <point x="322" y="691"/>
      <point x="320" y="939" type="curve"/>
      <point x="322" y="1184"/>
      <point x="315" y="1393"/>
      <point x="337" y="1585" type="curve"/>
      <point x="350" y="1682"/>
      <point x="369" y="1779"/>
      <point x="457" y="1779" type="curve"/>
    </contour>
    <contour>
      <point x="855" y="939" type="line"/>
      <point x="838" y="1389"/>
      <point x="929" y="1921"/>
      <point x="457" y="1909" type="curve"/>
      <point x="-15" y="1918"/>
      <point x="77" y="1387"/>
      <point x="59" y="937" type="curve"/>
      <point x="77" y="487"/>
      <point x="-16" y="-47"/>
      <point x="456" y="-36" type="curve"/>
      <point x="929" y="-47"/>
      <point x="837" y="489"/>
      <point x="854" y="937" type="curve"/>
    </contour>
  </outline>
</glyph>
<glyph name="R" format="1">
  <advance width="879"/>
  <unicode hex="0052"/>
  <outline>
    <contour>
      <point x="594" y="0" type="line"/>
      <point x="844" y="0" type="line"/>
      <point x="770" y="213"/>
      <point x="781" y="488"/>
      <point x="764" y="753" type="curve"/>
      <point x="759" y="860"/>
      <point x="670" y="973"/>
      <point x="584" y="993" type="curve"/>
      <point x="584" y="999" type="line"/>
      <point x="776" y="1025"/>
      <point x="811" y="1187"/>
      <point x="815" y="1394" type="curve"/>
      <point x="819" y="1680"/>
      <point x="715" y="1864"/>
      <point x="454" y="1864" type="curve" smooth="yes"/>
      <point x="89" y="1864" type="line"/>
      <point x="89" y="-2" type="line"/>
      <point x="329" y="-2" type="line"/>
      <point x="329" y="916" type="line"/>
      <point x="390" y="916" type="line" smooth="yes"/>
      <point x="481" y="916"/>
      <point x="525" y="858"/>
      <point x="525" y="749" type="curve" smooth="yes"/>
      <point x="525" y="460"/>
      <point x="525" y="207"/>
      <point x="593" y="-2" type="curve"/>
    </contour>
    <contour>
      <point x="329" y="1074" type="curve"/>
      <point x="329" y="1720" type="line"/>
      <point x="407" y="1720" type="line" smooth="yes"/>
      <point x="568" y="1720"/>
      <point x="568" y="1555"/>
      <point x="568" y="1391" type="curve"/>
      <point x="577" y="1169"/>
      <point x="556" y="1055"/>
    </contour>
  </outline>
</glyph>
<glyph name="R" format="1">
  <advance width="888"/>
  <unicode hex="0052"/>
  <outline>
    <contour>
      <point x="595" y="0" type="line"/>
      <point x="552.156" y="130.801"/>
      <point x="544.153" y="279.437"/>
      <point x="544.153" y="443.02" type="curve" smooth="yes"/>
      <point x="544.153" y="540.568"/>
      <point x="546.999" y="643.433"/>
      <point x="547" y="751" type="curve" smooth="yes"/>
      <point x="547" y="859.833"/>
      <point x="481.979" y="918"/>
      <point x="391" y="918" type="curve" smooth="yes"/>
      <point x="330" y="918" type="line"/>
      <point x="330" y="0" type="line"/>
      <point x="90" y="0" type="line"/>
      <point x="90" y="1866" type="line"/>
      <point x="468" y="1866" type="line" smooth="yes"/>
      <point x="723.137" y="1865.92"/>
      <point x="821.139" y="1688.95"/>
      <point x="821.139" y="1412.57" type="curve" smooth="yes"/>
      <point x="821.139" y="1197.09"/>
      <point x="780.042" y="1026.33"/>
      <point x="584" y="1000" type="curve"/>
      <point x="584" y="994" type="line"/>
      <point x="669.769" y="973.687"/>
      <point x="777" y="860.355"/>
      <point x="777" y="753" type="curve" smooth="yes"/>
      <point x="777" y="488.4"/>
      <point x="781.719" y="212.621"/>
      <point x="856" y="0" type="curve"/>
    </contour>
    <contour>
      <point x="330" y="1076" type="line"/>
      <point x="346.307" y="1074.66"/>
      <point x="361.505" y="1073.99"/>
      <point x="375.668" y="1073.99" type="curve" smooth="yes"/>
      <point x="575.791" y="1073.99"/>
      <point x="581.059" y="1211.6"/>
      <point x="581.059" y="1435.44" type="curve" smooth="yes"/>
      <point x="581.059" y="1583.32"/>
      <point x="574.633" y="1722"/>
      <point x="427" y="1722" type="curve" smooth="yes"/>
      <point x="330" y="1722" type="line"/>
    </contour>
  </outline>
</glyph>
<glyph name="S" format="1">
  <advance width="857"/>
  <unicode hex="0053"/>
  <outline>
    <contour>
      <point x="45" y="1468" type="line"/>
      <point x="45" y="1320"/>
      <point x="71" y="1211"/>
      <point x="123" y="1122" type="curve" smooth="yes"/>
      <point x="256" y="898"/>
      <point x="563" y="859"/>
      <point x="545" y="483" type="curve"/>
      <point x="536" y="341"/>
      <point x="554" y="164"/>
      <point x="426" y="146" type="curve"/>
      <point x="303" y="157"/>
      <point x="293" y="292"/>
      <point x="289" y="423" type="curve"/>
      <point x="289" y="526"/>
      <point x="303" y="625"/>
      <point x="321" y="709" type="curve"/>
      <point x="102" y="709" type="line"/>
      <point x="79" y="618"/>
      <point x="61" y="516"/>
      <point x="61" y="402" type="curve"/>
      <point x="55" y="125"/>
      <point x="155" y="-35"/>
      <point x="433" y="-30" type="curve"/>
      <point x="747" y="-35"/>
      <point x="814" y="202"/>
      <point x="807" y="516" type="curve"/>
      <point x="807" y="668"/>
      <point x="780" y="780"/>
      <point x="726" y="871" type="curve"/>
      <point x="586" y="1097"/>
      <point x="269" y="1133"/>
      <point x="289" y="1520" type="curve"/>
      <point x="289" y="1629"/>
      <point x="307" y="1743"/>
      <point x="416" y="1743" type="curve" smooth="yes"/>
      <point x="516" y="1743"/>
      <point x="543" y="1669"/>
      <point x="543" y="1569" type="curve" smooth="yes"/>
      <point x="543" y="1479"/>
      <point x="523" y="1398"/>
      <point x="514" y="1321" type="curve"/>
      <point x="737" y="1321" type="line"/>
      <point x="752" y="1393"/>
      <point x="766" y="1466"/>
      <point x="766" y="1546" type="curve" smooth="yes"/>
      <point x="766" y="1787"/>
      <point x="643" y="1901"/>
      <point x="401" y="1901" type="curve"/>
      <point x="154" y="1893"/>
      <point x="50" y="1713"/>
      <point x="43" y="1467" type="curve"/>
    </contour>
  </outline>
</glyph>
<glyph name="T" format="1">
  <advance width="588"/>
  <unicode hex="0054"/>
  <outline>
    <contour>
      <point x="409" y="1683" type="line"/>
      <point x="610" y="1683" type="line"/>
      <point x="610" y="1866" type="line"/>
      <point x="-40" y="1866" type="line"/>
      <point x="-40" y="1686" type="line"/>
      <point x="169" y="1686" type="line"/>
      <point x="169" y="0" type="line"/>
      <point x="409" y="0" type="line"/>
    </contour>
  </outline>
</glyph>
<glyph name="U" format="1">
  <advance width="913"/>
  <unicode hex="0055"/>
  <outline>
    <contour>
      <point x="320" y="441" type="curve"/>
      <point x="320" y="1866" type="line"/>
      <point x="79" y="1866" type="line"/>
      <point x="79" y="474" type="line" smooth="yes"/>
      <point x="79" y="159"/>
      <point x="144" y="-35"/>
      <point x="454" y="-35" type="curve"/>
      <point x="767" y="-50"/>
      <point x="829" y="169"/>
      <point x="829" y="474" type="curve" smooth="yes"/>
      <point x="829" y="1866" type="line"/>
      <point x="596" y="1866" type="line"/>
      <point x="596" y="441" type="line"/>
      <point x="588" y="280"/>
      <point x="598" y="135"/>
      <point x="456" y="135" type="curve" smooth="yes"/>
      <point x="452" y="135" type="line" smooth="yes"/>
      <point x="313" y="135"/>
      <point x="326" y="278"/>
    </contour>
  </outline>
</glyph>
<glyph name="U" format="1">
  <advance width="915"/>
  <unicode hex="0055"/>
  <outline>
    <contour>
      <point x="320" y="441" type="line"/>
      <point x="325.6" y="277.845"/>
      <point x="313.002" y="135"/>
      <point x="452" y="135" type="curve"/>
      <point x="456" y="135" type="line"/>
      <point x="598.002" y="135"/>
      <point x="588.269" y="279.769"/>
      <point x="596" y="441" type="curve"/>
      <point x="596" y="1866" type="line"/>
      <point x="829" y="1866" type="line"/>
      <point x="829" y="474" type="line" smooth="yes"/>
      <point x="829.493" y="168.562"/>
      <point x="767.41" y="-50.4834"/>
      <point x="454" y="-35" type="curve"/>
      <point x="144.245" y="-35"/>
      <point x="79" y="158.611"/>
      <point x="79" y="474" type="curve" smooth="yes"/>
      <point x="79" y="1866" type="line"/>
      <point x="320" y="1866" type="line"/>
    </contour>
  </outline>
</glyph>
<glyph name="V" format="1">
  <advance width="848"/>
  <unicode hex="0056"/>
  <outline>
    <contour>
      <point x="861" y="1866" type="line"/>
      <point x="638" y="1866" type="line"/>
      <point x="435" y="584" type="line"/>
      <point x="212" y="1866" type="line"/>
      <point x="-25" y="1866" type="line"/>
      <point x="298" y="0" type="line"/>
      <point x="538" y="0" type="line"/>
    </contour>
  </outline>
</glyph>
<glyph name="V" format="1">
  <advance width="844"/>
  <unicode hex="0056"/>
  <outline>
    <contour>
      <point x="858" y="1866" type="line"/>
      <point x="535" y="0" type="line"/>
      <point x="295" y="0" type="line"/>
      <point x="-28" y="1866" type="line"/>
      <point x="209" y="1866" type="line"/>
      <point x="432" y="584" type="line"/>
      <point x="635" y="1866" type="line"/>
    </contour>
  </outline>
</glyph>
<glyph name="W" format="1">
  <advance width="1328"/>
  <unicode hex="0057"/>
  <outline>
    <contour>
      <point x="1325" y="1866" type="line"/>
      <point x="1096" y="1866" type="line"/>
      <point x="938" y="543" type="line"/>
      <point x="772" y="1866" type="line"/>
      <point x="545" y="1866" type="line"/>
      <point x="385" y="600" type="line"/>
      <point x="221" y="1866" type="line"/>
      <point x="-8" y="1866" type="line"/>
      <point x="246" y="0" type="line"/>
      <point x="485" y="0" type="line"/>
      <point x="660" y="1147" type="line"/>
      <point x="836" y="0" type="line"/>
      <point x="1071" y="0" type="line"/>
    </contour>
  </outline>
</glyph>
<glyph name="W" format="1">
  <advance width="1327"/>
  <unicode hex="0057"/>
  <outline>
    <contour>
      <point x="1323" y="1866" type="line"/>
      <point x="1069" y="0" type="line"/>
      <point x="834" y="0" type="line"/>
      <point x="658" y="1147" type="line"/>
      <point x="483" y="0" type="line"/>
      <point x="244" y="0" type="line"/>
      <point x="-10" y="1866" type="line"/>
      <point x="219" y="1866" type="line"/>
      <point x="383" y="600" type="line"/>
      <point x="543" y="1866" type="line"/>
      <point x="770" y="1866" type="line"/>
      <point x="936" y="543" type="line"/>
      <point x="1094" y="1866" type="line"/>
    </contour>
  </outline>
</glyph>
<glyph name="X" format="1">
  <advance width="706"/>
  <unicode hex="0058"/>
  <outline>
    <contour>
      <point x="247" y="1866" type="line"/>
      <point x="28" y="1866" type="line"/>
      <point x="243" y="963" type="line"/>
      <point x="24" y="0" type="line"/>
      <point x="253" y="0" type="line"/>
      <point x="360" y="471" type="line"/>
      <point x="473" y="0" type="line"/>
      <point x="681" y="0" type="line"/>
      <point x="464" y="930" type="line"/>
      <point x="677" y="1866" type="line"/>
      <point x="448" y="1866" type="line"/>
      <point x="348" y="1430" type="line"/>
    </contour>
  </outline>
</glyph>
<glyph name="Y" format="1">
  <advance width="767"/>
  <unicode hex="0059"/>
  <outline>
    <contour>
      <point x="788" y="1866" type="line"/>
      <point x="556" y="1866" type="line"/>
      <point x="382" y="870" type="line"/>
      <point x="200" y="1866" type="line"/>
      <point x="-37" y="1866" type="line"/>
      <point x="264" y="410" type="line"/>
      <point x="264" y="0" type="line"/>
      <point x="503" y="0" type="line"/>
      <point x="503" y="410" type="line"/>
    </contour>
  </outline>
</glyph>
<glyph name="Z" format="1">
  <advance width="661"/>
  <unicode hex="005A"/>
  <outline>
    <contour>
      <point x="47" y="0" type="line"/>
      <point x="612" y="0" type="line"/>
      <point x="612" y="184" type="line"/>
      <point x="295" y="184" type="line"/>
      <point x="624" y="1747" type="line"/>
      <point x="624" y="1866" type="line"/>
      <point x="55" y="1866" type="line"/>
      <point x="55" y="1679" type="line"/>
      <point x="372" y="1679" type="line"/>
      <point x="47" y="147" type="line"/>
    </contour>
  </outline>
</glyph>
<glyph name="backslash" format="1">
  <advance width="596"/>
  <unicode hex="005C"/>
  <outline>
    <contour>
      <point x="23" y="1865" type="line"/>
      <point x="323" y="1" type="line"/>
      <point x="558" y="1" type="line"/>
      <point x="258" y="1865" type="line"/>
    </contour>
  </outline>
</glyph>
<glyph name="a" format="1">
  <advance width="796"/>
  <unicode hex="0061"/>
  <outline>
    <contour>
      <point x="363" y="1358" type="line"/>
      <point x="186" y="1358"/>
      <point x="74" y="1275"/>
      <point x="74" y="1075" type="curve" smooth="yes"/>
      <point x="74" y="1025"/>
      <point x="81" y="968"/>
      <point x="96" y="903" type="curve"/>
      <point x="287" y="903" type="line"/>
      <point x="276" y="953"/>
      <point x="269" y="1006"/>
      <point x="269" y="1054" type="curve" smooth="yes"/>
      <point x="269" y="1146"/>
      <point x="294" y="1221"/>
      <point x="360" y="1221" type="curve" smooth="yes"/>
      <point x="401" y="1221"/>
      <point x="440" y="1184"/>
      <point x="440" y="1090" type="curve" smooth="yes"/>
      <point x="440" y="922" type="line" smooth="yes"/>
      <point x="440" y="851"/>
      <point x="373" y="824"/>
      <point x="319" y="804" type="curve" smooth="yes"/>
      <point x="182" y="752"/>
      <point x="56" y="681"/>
      <point x="56" y="465" type="curve" smooth="yes"/>
      <point x="56" y="223" type="line" smooth="yes"/>
      <point x="56" y="75"/>
      <point x="158" y="-28"/>
      <point x="277" y="-28" type="curve" smooth="yes"/>
      <point x="371" y="-28"/>
      <point x="433" y="23"/>
      <point x="472" y="77" type="curve"/>
      <point x="505" y="17"/>
      <point x="554" y="-13"/>
      <point x="650" y="-13" type="curve" smooth="yes"/>
      <point x="696" y="-13"/>
      <point x="740" y="-3"/>
      <point x="778" y="7" type="curve"/>
      <point x="778" y="140" type="line"/>
      <point x="778" y="140"/>
      <point x="740" y="132"/>
      <point x="719" y="132" type="curve" smooth="yes"/>
      <point x="665" y="132"/>
      <point x="649" y="159"/>
      <point x="649" y="210" type="curve" smooth="yes"/>
      <point x="649" y="1158" type="line" smooth="yes"/>
      <point x="649" y="1306"/>
      <point x="517" y="1359"/>
      <point x="364" y="1359" type="curve"/>
    </contour>
    <contour>
      <point x="440" y="753" type="line"/>
      <point x="440" y="279" type="line" smooth="yes"/>
      <point x="440" y="137"/>
      <point x="403" y="103"/>
      <point x="348" y="103" type="curve" smooth="yes"/>
      <point x="267" y="103"/>
      <point x="264" y="197"/>
      <point x="264" y="277" type="curve" smooth="yes"/>
      <point x="263" y="415" type="line" smooth="yes"/>
      <point x="262" y="615"/>
      <point x="309" y="673"/>
      <point x="438" y="753" type="curve"/>
    </contour>
  </outline>
</glyph>
<glyph name="b" format="1">
  <advance width="752"/>
  <unicode hex="0062"/>
  <outline>
    <contour>
      <point x="482" y="1358" type="line" smooth="yes"/>
      <point x="376" y="1358"/>
      <point x="330" y="1293"/>
      <point x="291" y="1221" type="curve"/>
      <point x="291" y="1866" type="line"/>
      <point x="90" y="1866" type="line"/>
      <point x="90" y="0" type="line"/>
      <point x="156" y="0" type="line"/>
      <point x="191" y="141" type="line"/>
      <point x="223" y="42"/>
      <point x="298" y="-29"/>
      <point x="400" y="-29" type="curve" smooth="yes"/>
      <point x="652" y="-29"/>
      <point x="696" y="249"/>
      <point x="696" y="694" type="curve" smooth="yes"/>
      <point x="696" y="1208"/>
      <point x="589" y="1358"/>
      <point x="479" y="1358" type="curve" smooth="yes"/>
    </contour>
    <contour>
      <point x="386" y="98" type="line" smooth="yes"/>
      <point x="321" y="98"/>
      <point x="296" y="150"/>
      <point x="296" y="217" type="curve" smooth="yes"/>
      <point x="296" y="1059" type="line" smooth="yes"/>
      <point x="296" y="1130"/>
      <point x="329" y="1198"/>
      <point x="394" y="1198" type="curve" smooth="yes"/>
      <point x="468" y="1198"/>
      <point x="481" y="940"/>
      <point x="481" y="690" type="curve" smooth="yes"/>
      <point x="481" y="282"/>
      <point x="467" y="98"/>
      <point x="384" y="98" type="curve" smooth="yes"/>
    </contour>
  </outline>
</glyph>
<glyph name="c" format="1">
  <advance width="686"/>
  <unicode hex="0063"/>
  <outline>
    <contour>
      <point x="357" y="104" type="line"/>
      <point x="271" y="104"/>
      <point x="263" y="231"/>
      <point x="263" y="678" type="curve" smooth="yes"/>
      <point x="263" y="1080"/>
      <point x="272" y="1223"/>
      <point x="352" y="1223" type="curve" smooth="yes"/>
      <point x="413" y="1223"/>
      <point x="433" y="1127"/>
      <point x="433" y="1012" type="curve" smooth="yes"/>
      <point x="433" y="959"/>
      <point x="429" y="902"/>
      <point x="423" y="848" type="curve"/>
      <point x="602" y="848" type="line"/>
      <point x="608" y="905"/>
      <point x="612" y="959"/>
      <point x="612" y="1009" type="curve" smooth="yes"/>
      <point x="612" y="1217"/>
      <point x="552" y="1356"/>
      <point x="345" y="1356" type="curve" smooth="yes"/>
      <point x="56" y="1356"/>
      <point x="56" y="1078"/>
      <point x="56" y="678" type="curve" smooth="yes"/>
      <point x="56" y="220"/>
      <point x="71" y="-31"/>
      <point x="345" y="-31" type="curve" smooth="yes"/>
      <point x="563" y="-31"/>
      <point x="627" y="92"/>
      <point x="627" y="325" type="curve" smooth="yes"/>
      <point x="627" y="390"/>
      <point x="622" y="464"/>
      <point x="614" y="546" type="curve"/>
      <point x="429" y="546" type="line"/>
      <point x="431" y="487"/>
      <point x="449" y="377"/>
      <point x="449" y="281" type="curve" smooth="yes"/>
      <point x="449" y="184"/>
      <point x="431" y="101"/>
      <point x="359" y="101" type="curve"/>
    </contour>
  </outline>
</glyph>
<glyph name="d" format="1">
  <advance width="743"/>
  <unicode hex="0064"/>
  <outline>
    <contour>
      <point x="299.97" y="-30.0762" type="curve" smooth="yes"/>
      <point x="385.154" y="-30.7842"/>
      <point x="429.898" y="9.37012"/>
      <point x="471" y="141" type="curve"/>
      <point x="471" y="0" type="line"/>
      <point x="651" y="0" type="line"/>
      <point x="651" y="1866" type="line"/>
      <point x="450" y="1866" type="line"/>
      <point x="450" y="1171" type="line"/>
      <point x="425.784" y="1286.3"/>
      <point x="377" y="1358"/>
      <point x="269" y="1358" type="curve" smooth="yes"/>
      <point x="159.5" y="1358"/>
      <point x="43" y="1208.3"/>
      <point x="43" y="694.3" type="curve" smooth="yes"/>
      <point x="43" y="180.744"/>
      <point x="96.4834" y="-30.0762"/>
    </contour>
    <contour>
      <point x="352" y="98" type="curve" smooth="yes"/>
      <point x="269.5" y="98"/>
      <point x="256" y="282.3"/>
      <point x="256" y="690.3" type="curve" smooth="yes"/>
      <point x="256" y="940.305"/>
      <point x="269.5" y="1198"/>
      <point x="344" y="1198" type="curve" smooth="yes"/>
      <point x="409.382" y="1198"/>
      <point x="442" y="1130"/>
      <point x="442" y="1059" type="curve" smooth="yes"/>
      <point x="442" y="257" type="line" smooth="yes"/>
      <point x="442" y="190.26"/>
      <point x="416.85" y="98"/>
    </contour>
  </outline>
</glyph>
<glyph name="e" format="1">
  <advance width="708"/>
  <unicode hex="0065"/>
  <outline>
    <contour>
      <point x="344" y="1358" type="line"/>
      <point x="72" y="1358"/>
      <point x="47" y="1018"/>
      <point x="47" y="690" type="curve" smooth="yes"/>
      <point x="47" y="288"/>
      <point x="66" y="-29"/>
      <point x="354" y="-29" type="curve" smooth="yes"/>
      <point x="567" y="-29"/>
      <point x="645" y="64"/>
      <point x="645" y="279" type="curve" smooth="yes"/>
      <point x="645" y="344"/>
      <point x="638" y="420"/>
      <point x="625" y="508" type="curve"/>
      <point x="456" y="508" type="line"/>
      <point x="462" y="349" type="line" smooth="yes"/>
      <point x="463" y="333"/>
      <point x="463" y="317"/>
      <point x="463" y="301" type="curve" smooth="yes"/>
      <point x="463" y="200"/>
      <point x="447" y="105"/>
      <point x="369" y="105" type="curve" smooth="yes"/>
      <point x="289" y="105"/>
      <point x="256" y="141"/>
      <point x="256" y="646" type="curve"/>
      <point x="643" y="646" type="line"/>
      <point x="643" y="686"/>
      <point x="644" y="732"/>
      <point x="644" y="781" type="curve" smooth="yes"/>
      <point x="644" y="1031"/>
      <point x="621" y="1360"/>
      <point x="344" y="1360" type="curve"/>
    </contour>
    <contour>
      <point x="344" y="1245" type="curve" smooth="yes"/>
      <point x="442" y="1245"/>
      <point x="448" y="1022"/>
      <point x="448" y="762" type="curve"/>
      <point x="256" y="762" type="line"/>
      <point x="256" y="1008"/>
      <point x="260" y="1245"/>
    </contour>
  </outline>
</glyph>
<glyph name="f" format="1">
  <advance width="534"/>
  <unicode hex="0066"/>
  <outline>
    <contour>
      <point x="434" y="1653" type="curve" smooth="yes"/>
      <point x="363.558" y="1653"/>
      <point x="343" y="1622.5"/>
      <point x="343" y="1553" type="curve" smooth="yes"/>
      <point x="343" y="1333" type="line"/>
      <point x="489" y="1333" type="line"/>
      <point x="489" y="1219" type="line"/>
      <point x="343" y="1219" type="line"/>
      <point x="343" y="0" type="line"/>
      <point x="126" y="0" type="line"/>
      <point x="126" y="1219" type="line"/>
      <point x="-1" y="1219" type="line"/>
      <point x="-1" y="1333" type="line"/>
      <point x="135" y="1333" type="line"/>
      <point x="135" y="1584" type="line" smooth="yes"/>
      <point x="135" y="1744.83"/>
      <point x="190.181" y="1825"/>
      <point x="353" y="1825" type="curve" smooth="yes"/>
      <point x="408.321" y="1825"/>
      <point x="468.549" y="1819.15"/>
      <point x="511" y="1805" type="curve"/>
      <point x="511" y="1645" type="line"/>
      <point x="485.729" y="1651.59"/>
      <point x="461.869" y="1653"/>
    </contour>
  </outline>
</glyph>
<glyph name="g" format="1">
  <advance width="716"/>
  <unicode hex="0067"/>
  <outline>
    <contour>
      <point x="50" y="344" type="curve"/>
      <point x="57.9287" y="448.923"/>
      <point x="143.386" y="481.904"/>
      <point x="207" y="537" type="curve"/>
      <point x="101.778" y="604.885"/>
      <point x="74" y="756.155"/>
      <point x="74" y="934" type="curve" smooth="yes"/>
      <point x="74" y="1162.16"/>
      <point x="126.761" y="1358"/>
      <point x="346" y="1358" type="curve" smooth="yes"/>
      <point x="382.021" y="1358"/>
      <point x="414.496" y="1349.68"/>
      <point x="441" y="1337" type="curve"/>
      <point x="502" y="1513" type="line"/>
      <point x="693" y="1513" type="line"/>
      <point x="510" y="1286" type="line"/>
      <point x="581.482" y="1213"/>
      <point x="615" y="1098.04"/>
      <point x="615" y="944" type="curve"/>
      <point x="611.777" y="700.951"/>
      <point x="568.995" y="512.209"/>
      <point x="346" y="500" type="curve"/>
      <point x="313.981" y="500"/>
      <point x="283.244" y="504.427"/>
      <point x="258" y="512" type="curve"/>
      <point x="251.576" y="493.8"/>
      <point x="248" y="475.937"/>
      <point x="248" y="455" type="curve" smooth="yes"/>
      <point x="248" y="359.44"/>
      <point x="381.236" y="381.644"/>
      <point x="462" y="366.5" type="curve" smooth="yes"/>
      <point x="621.406" y="336.611"/>
      <point x="676" y="208.924"/>
      <point x="676" y="12" type="curve"/>
      <point x="683.486" y="-235.271"/>
      <point x="611.054" y="-376.393"/>
      <point x="361" y="-367" type="curve"/>
      <point x="147.795" y="-367"/>
      <point x="15" y="-277.438"/>
      <point x="15" y="-63" type="curve" smooth="yes"/>
      <point x="15" y="81.7559"/>
      <point x="97.1631" y="141.419"/>
      <point x="156" y="227" type="curve"/>
      <point x="85.333" y="247.667"/>
      <point x="50" y="286.667"/>
    </contour>
    <contour>
      <point x="265" y="199" type="curve"/>
      <point x="223.687" y="146.289"/>
      <point x="224" y="60.2061"/>
      <point x="224" y="-37" type="curve" smooth="yes"/>
      <point x="224" y="-143.258"/>
      <point x="252.897" y="-246"/>
      <point x="361" y="-246" type="curve" smooth="yes"/>
      <point x="474.393" y="-246"/>
      <point x="465" y="-125.051"/>
      <point x="465" y="-10" type="curve"/>
      <point x="475.225" y="147.984"/>
      <point x="413.011" y="200.453"/>
    </contour>
    <contour>
      <point x="346" y="1245" type="curve" smooth="yes"/>
      <point x="283.794" y="1245"/>
      <point x="287.213" y="1176.12"/>
      <point x="286" y="1107" type="curve" smooth="yes"/>
      <point x="285.333" y="1069"/>
      <point x="285" y="1018.67"/>
      <point x="285" y="956" type="curve" smooth="yes"/>
      <point x="285" y="861.155"/>
      <point x="281.425" y="783.987"/>
      <point x="292.5" y="712.5" type="curve" smooth="yes"/>
      <point x="298.388" y="674.497"/>
      <point x="308.379" y="647"/>
      <point x="346" y="647" type="curve" smooth="yes"/>
      <point x="405.797" y="647"/>
      <point x="401.867" y="740.099"/>
      <point x="403" y="807.5" type="curve" smooth="yes"/>
      <point x="403.667" y="847.167"/>
      <point x="404" y="896.667"/>
      <point x="404" y="956" type="curve" smooth="yes"/>
      <point x="404" y="1043.64"/>
      <point x="404.355" y="1151.08"/>
      <point x="380" y="1214" type="curve" smooth="yes"/>
      <point x="372" y="1234.67"/>
      <point x="360.667" y="1245"/>
    </contour>
  </outline>
</glyph>
<glyph name="h" format="1">
  <advance width="783"/>
  <unicode hex="0068"/>
  <outline>
    <contour>
      <point x="514" y="1358" type="curve"/>
      <point x="409" y="1358"/>
      <point x="348" y="1313"/>
      <point x="309" y="1241" type="curve"/>
      <point x="309" y="1866" type="line"/>
      <point x="90" y="1866" type="line"/>
      <point x="90" y="0" type="line"/>
      <point x="309" y="0" type="line"/>
      <point x="309" y="1100" type="line" smooth="yes"/>
      <point x="309" y="1159"/>
      <point x="347" y="1198"/>
      <point x="406" y="1198" type="curve" smooth="yes"/>
      <point x="458" y="1198"/>
      <point x="490" y="1153"/>
      <point x="490" y="1100" type="curve" smooth="yes"/>
      <point x="490" y="0" type="line"/>
      <point x="707" y="0" type="line"/>
      <point x="707" y="1159" type="line"/>
      <point x="702" y="1275"/>
      <point x="627" y="1350"/>
    </contour>
  </outline>
</glyph>
<glyph name="i" format="1">
  <advance width="399"/>
  <unicode hex="0069"/>
  <outline>
    <contour>
      <point x="305" y="1866" type="line"/>
      <point x="88" y="1866" type="line"/>
      <point x="88" y="1616" type="line"/>
      <point x="305" y="1616" type="line"/>
    </contour>
    <contour>
      <point x="308" y="0" type="line"/>
      <point x="308" y="1333" type="line"/>
      <point x="91" y="1333" type="line"/>
      <point x="91" y="0" type="line"/>
    </contour>
  </outline>
</glyph>
<glyph name="j" format="1">
  <advance width="397"/>
  <unicode hex="006A"/>
  <outline>
    <contour>
      <point x="304" y="1866" type="line"/>
      <point x="87" y="1866" type="line"/>
      <point x="87" y="1616" type="line"/>
      <point x="304" y="1616" type="line"/>
    </contour>
    <contour>
      <point x="-86" y="-145" type="line"/>
      <point x="-86" y="-342" type="line"/>
      <point x="224" y="-357"/>
      <point x="309" y="-151"/>
      <point x="307" y="152" type="curve"/>
      <point x="307" y="1333" type="line"/>
      <point x="88" y="1333" type="line"/>
      <point x="88" y="121" type="line"/>
      <point x="87" y="-36"/>
      <point x="73" y="-151"/>
      <point x="-86" y="-144" type="curve"/>
    </contour>
  </outline>
</glyph>
<glyph name="k" format="1">
  <advance width="783"/>
  <unicode hex="006B"/>
  <outline>
    <contour>
      <point x="531" y="764" type="line"/>
      <point x="748" y="1333" type="line"/>
      <point x="529" y="1333" type="line"/>
      <point x="309" y="768" type="line"/>
      <point x="309" y="1866" type="line"/>
      <point x="90" y="1866" type="line"/>
      <point x="90" y="0" type="line"/>
      <point x="309" y="0" type="line"/>
      <point x="309" y="514" type="line"/>
      <point x="363" y="664" type="line"/>
      <point x="557" y="0" type="line"/>
      <point x="776" y="0" type="line"/>
    </contour>
  </outline>
</glyph>
<glyph name="m" format="1">
  <advance width="1120"/>
  <unicode hex="006D"/>
  <outline>
    <contour>
      <point x="856" y="1358" type="line"/>
      <point x="757" y="1352"/>
      <point x="693" y="1300"/>
      <point x="652" y="1235" type="curve"/>
      <point x="625" y="1298"/>
      <point x="566" y="1358"/>
      <point x="478" y="1358" type="curve" smooth="yes"/>
      <point x="391" y="1358"/>
      <point x="328" y="1319"/>
      <point x="289" y="1241" type="curve"/>
      <point x="289" y="1333" type="line"/>
      <point x="80" y="1333" type="line"/>
      <point x="80" y="0" type="line"/>
      <point x="289" y="0" type="line"/>
      <point x="289" y="1100" type="line" smooth="yes"/>
      <point x="289" y="1154"/>
      <point x="326" y="1196"/>
      <point x="379" y="1196" type="curve" smooth="yes"/>
      <point x="430" y="1196"/>
      <point x="457" y="1157"/>
      <point x="457" y="1100" type="curve" smooth="yes"/>
      <point x="457" y="0" type="line"/>
      <point x="666" y="0" type="line"/>
      <point x="666" y="1116" type="line"/>
      <point x="680" y="1156"/>
      <point x="711" y="1196"/>
      <point x="757" y="1196" type="curve" smooth="yes"/>
      <point x="805" y="1196"/>
      <point x="831" y="1154"/>
      <point x="831" y="1100" type="curve" smooth="yes"/>
      <point x="831" y="0" type="line"/>
      <point x="1040" y="0" type="line"/>
      <point x="1040" y="1159" type="line"/>
      <point x="1035" y="1274"/>
      <point x="968" y="1351"/>
      <point x="855" y="1358" type="curve"/>
    </contour>
  </outline>
</glyph>
<glyph name="n" format="1">
  <advance width="755"/>
  <unicode hex="006E"/>
  <outline>
    <contour>
      <point x="493" y="1358" type="curve"/>
      <point x="605.505" y="1351.15"/>
      <point x="677" y="1240.2"/>
      <point x="677" y="1129" type="curve"/>
      <point x="677" y="0" type="line"/>
      <point x="468" y="0" type="line"/>
      <point x="468" y="1100" type="line" smooth="yes"/>
      <point x="468" y="1153.45"/>
      <point x="435.725" y="1208"/>
      <point x="384" y="1208" type="curve" smooth="yes"/>
      <point x="325.89" y="1208"/>
      <point x="288" y="1148.74"/>
      <point x="288" y="1090" type="curve" smooth="yes"/>
      <point x="288" y="0" type="line"/>
      <point x="79" y="0" type="line"/>
      <point x="79" y="1333" type="line"/>
      <point x="268" y="1333" type="line"/>
      <point x="268" y="1201" type="line"/>
      <point x="306.994" y="1272.89"/>
      <point x="387.997" y="1358"/>
    </contour>
  </outline>
</glyph>
<glyph name="o" format="1">
  <advance width="702"/>
  <unicode hex="006F"/>
  <outline>
    <contour>
      <point x="344" y="133" type="line"/>
      <point x="309" y="133"/>
      <point x="295" y="158"/>
      <point x="285" y="191" type="curve" smooth="yes"/>
      <point x="266" y="253"/>
      <point x="264" y="326"/>
      <point x="264" y="417" type="curve" smooth="yes"/>
      <point x="264" y="896" type="line"/>
      <point x="276" y="1022"/>
      <point x="239" y="1176"/>
      <point x="344" y="1197" type="curve"/>
      <point x="383" y="1197"/>
      <point x="398" y="1175"/>
      <point x="409" y="1139" type="curve" smooth="yes"/>
      <point x="429" y="1073"/>
      <point x="428" y="995"/>
      <point x="428" y="896" type="curve" smooth="yes"/>
      <point x="428" y="417" type="line"/>
      <point x="419" y="297"/>
      <point x="445" y="154"/>
      <point x="344" y="134" type="curve"/>
    </contour>
    <contour>
      <point x="344" y="1359" type="line"/>
      <point x="110" y="1345"/>
      <point x="58" y="1151"/>
      <point x="56" y="875" type="curve"/>
      <point x="56" y="439" type="line" smooth="yes"/>
      <point x="56" y="192"/>
      <point x="107" y="-28"/>
      <point x="345" y="-28" type="curve" smooth="yes"/>
      <point x="585" y="-28"/>
      <point x="638" y="191"/>
      <point x="638" y="439" type="curve" smooth="yes"/>
      <point x="638" y="875" type="line"/>
      <point x="636" y="1152"/>
      <point x="583" y="1346"/>
      <point x="345" y="1359" type="curve"/>
    </contour>
  </outline>
</glyph>
<glyph name="p" format="1">
  <advance width="728"/>
  <unicode hex="0070"/>
  <outline>
    <contour>
      <point x="377" y="131" type="line"/>
      <point x="306" y="131"/>
      <point x="289" y="227"/>
      <point x="289" y="309" type="curve" smooth="yes"/>
      <point x="289" y="1028" type="line" smooth="yes"/>
      <point x="289" y="1110"/>
      <point x="292" y="1229"/>
      <point x="369" y="1229" type="curve" smooth="yes"/>
      <point x="447" y="1229"/>
      <point x="453" y="1111"/>
      <point x="453" y="1028" type="curve" smooth="yes"/>
      <point x="453" y="371" type="line"/>
      <point x="449" y="278"/>
      <point x="447" y="155"/>
      <point x="377" y="132" type="curve"/>
    </contour>
    <contour>
      <point x="662" y="456" type="line"/>
      <point x="662" y="865" type="line"/>
      <point x="653" y="1110"/>
      <point x="649" y="1344"/>
      <point x="424" y="1359" type="curve"/>
      <point x="342" y="1349"/>
      <point x="306" y="1295"/>
      <point x="270" y="1219" type="curve"/>
      <point x="268" y="1335" type="line"/>
      <point x="79" y="1335" type="line"/>
      <point x="79" y="-373" type="line"/>
      <point x="280" y="-373" type="line"/>
      <point x="280" y="88" type="line"/>
      <point x="311" y="11"/>
      <point x="359" y="-27"/>
      <point x="424" y="-27" type="curve"/>
      <point x="639" y="-3"/>
      <point x="655" y="213"/>
      <point x="662" y="457" type="curve"/>
    </contour>
  </outline>
</glyph>
<glyph name="q" format="1">
  <advance width="731"/>
  <unicode hex="0071"/>
  <outline>
    <contour>
      <point x="240" y="-29" type="line"/>
      <point x="345" y="-29"/>
      <point x="405" y="16"/>
      <point x="445" y="88" type="curve"/>
      <point x="445" y="-537" type="line"/>
      <point x="645" y="-537" type="line"/>
      <point x="645" y="1333" type="line"/>
      <point x="592" y="1333" type="line"/>
      <point x="557" y="1219" type="line"/>
      <point x="515" y="1282"/>
      <point x="458" y="1358"/>
      <point x="356" y="1358" type="curve" smooth="yes"/>
      <point x="132" y="1358"/>
      <point x="64" y="1215"/>
      <point x="64" y="989" type="curve" smooth="yes"/>
      <point x="64" y="334" type="line"/>
      <point x="69" y="156"/>
      <point x="80" y="-14"/>
      <point x="240" y="-28" type="curve"/>
    </contour>
    <contour>
      <point x="356" y="1232" type="curve" smooth="yes"/>
      <point x="422" y="1232"/>
      <point x="436" y="1180"/>
      <point x="436" y="1113" type="curve" smooth="yes"/>
      <point x="436" y="271" type="line" smooth="yes"/>
      <point x="436" y="199"/>
      <point x="414" y="132"/>
      <point x="348" y="132" type="curve" smooth="yes"/>
      <point x="295" y="132"/>
      <point x="272" y="207"/>
      <point x="272" y="271" type="curve" smooth="yes"/>
      <point x="272" y="1113" type="line" smooth="yes"/>
      <point x="272" y="1180"/>
      <point x="291" y="1232"/>
    </contour>
  </outline>
</glyph>
<glyph name="r" format="1">
  <advance width="673"/>
  <unicode hex="0072"/>
  <outline>
    <contour>
      <point x="391" y="1208" type="line"/>
      <point x="432" y="1208"/>
      <point x="445" y="1145"/>
      <point x="445" y="1066" type="curve" smooth="yes"/>
      <point x="445" y="943"/>
      <point x="414" y="782"/>
      <point x="406" y="757" type="curve"/>
      <point x="582" y="757" type="line"/>
      <point x="599" y="829"/>
      <point x="625" y="966"/>
      <point x="625" y="1091" type="curve" smooth="yes"/>
      <point x="625" y="1232"/>
      <point x="592" y="1358"/>
      <point x="478" y="1358" type="curve" smooth="yes"/>
      <point x="365" y="1358"/>
      <point x="302" y="1264"/>
      <point x="265" y="1149" type="curve"/>
      <point x="264" y="1333" type="line"/>
      <point x="81" y="1333" type="line"/>
      <point x="81" y="0" type="line"/>
      <point x="290" y="0" type="line"/>
      <point x="290" y="1038" type="line" smooth="yes"/>
      <point x="290" y="1086"/>
      <point x="304" y="1208"/>
      <point x="392" y="1208" type="curve"/>
    </contour>
  </outline>
</glyph>
<glyph name="s" format="1">
  <advance width="706"/>
  <unicode hex="0073"/>
  <outline>
    <contour>
      <point x="36" y="1040" type="line"/>
      <point x="39" y="576"/>
      <point x="463" y="714"/>
      <point x="458" y="280" type="curve" smooth="yes"/>
      <point x="457" y="194"/>
      <point x="440" y="104"/>
      <point x="354" y="104" type="curve" smooth="yes"/>
      <point x="276" y="104"/>
      <point x="251" y="172"/>
      <point x="251" y="254" type="curve" smooth="yes"/>
      <point x="251" y="339"/>
      <point x="264" y="417"/>
      <point x="278" y="489" type="curve"/>
      <point x="108" y="489" type="line"/>
      <point x="93" y="432"/>
      <point x="69" y="353"/>
      <point x="69" y="285" type="curve" smooth="yes"/>
      <point x="69" y="110"/>
      <point x="146" y="-29"/>
      <point x="350" y="-29" type="curve" smooth="yes"/>
      <point x="571" y="-29"/>
      <point x="664" y="99"/>
      <point x="664" y="318" type="curve" smooth="yes"/>
      <point x="664" y="542"/>
      <point x="581" y="670"/>
      <point x="449" y="753" type="curve" smooth="yes"/>
      <point x="355" y="812"/>
      <point x="234" y="891"/>
      <point x="234" y="1063" type="curve" smooth="yes"/>
      <point x="234" y="1139"/>
      <point x="258" y="1219"/>
      <point x="316" y="1219" type="curve" smooth="yes"/>
      <point x="374" y="1219"/>
      <point x="406" y="1173"/>
      <point x="406" y="1115" type="curve" smooth="yes"/>
      <point x="406" y="1041"/>
      <point x="400" y="983"/>
      <point x="392" y="922" type="curve"/>
      <point x="555" y="922" type="line"/>
      <point x="571" y="962"/>
      <point x="590" y="1028"/>
      <point x="590" y="1092" type="curve" smooth="yes"/>
      <point x="590" y="1269"/>
      <point x="499" y="1358"/>
      <point x="316" y="1358" type="curve"/>
      <point x="126" y="1353"/>
      <point x="40" y="1227"/>
      <point x="34" y="1040" type="curve"/>
    </contour>
  </outline>
</glyph>
<glyph name="t" format="1">
  <advance width="543"/>
  <unicode hex="0074"/>
  <outline>
    <contour>
      <point x="342" y="-14" type="curve" smooth="yes"/>
      <point x="401" y="-14"/>
      <point x="464" y="-8"/>
      <point x="510" y="6" type="curve"/>
      <point x="510" y="163" type="line"/>
      <point x="485" y="158"/>
      <point x="459" y="153"/>
      <point x="433" y="153" type="curve" smooth="yes"/>
      <point x="363" y="153"/>
      <point x="342" y="184"/>
      <point x="342" y="253" type="curve" smooth="yes"/>
      <point x="342" y="1219" type="line"/>
      <point x="488" y="1219" type="line"/>
      <point x="488" y="1333" type="line"/>
      <point x="342" y="1333" type="line"/>
      <point x="342" y="1731" type="line"/>
      <point x="125" y="1731" type="line"/>
      <point x="125" y="1333" type="line"/>
      <point x="-2" y="1333" type="line"/>
      <point x="-2" y="1219" type="line"/>
      <point x="134" y="1219" type="line"/>
      <point x="134" y="207" type="line" smooth="yes"/>
      <point x="134" y="57"/>
      <point x="190" y="-14"/>
    </contour>
  </outline>
</glyph>
<glyph name="u" format="1">
  <advance width="774"/>
  <unicode hex="0075"/>
  <outline>
    <contour>
      <point x="267" y="-29" type="line"/>
      <point x="368" y="-29"/>
      <point x="454" y="40"/>
      <point x="491" y="128" type="curve"/>
      <point x="491" y="0" type="line"/>
      <point x="690" y="0" type="line"/>
      <point x="690" y="1333" type="line"/>
      <point x="471" y="1333" type="line"/>
      <point x="471" y="229" type="line" smooth="yes"/>
      <point x="471" y="170"/>
      <point x="423" y="121"/>
      <point x="364" y="121" type="curve" smooth="yes"/>
      <point x="312" y="121"/>
      <point x="290" y="176"/>
      <point x="290" y="229" type="curve" smooth="yes"/>
      <point x="290" y="1333" type="line"/>
      <point x="73" y="1333" type="line"/>
      <point x="73" y="214" type="line" smooth="yes"/>
      <point x="73" y="98"/>
      <point x="151" y="-30"/>
      <point x="265" y="-30" type="curve"/>
    </contour>
  </outline>
</glyph>
<glyph name="v" format="1">
  <advance width="665"/>
  <unicode hex="0076"/>
  <outline>
    <contour>
      <point x="184" y="1333" type="line"/>
      <point x="4" y="1333" type="line"/>
      <point x="249" y="0" type="line"/>
      <point x="434" y="0" type="line"/>
      <point x="634" y="1333" type="line"/>
      <point x="470" y="1333" type="line"/>
      <point x="337" y="371" type="line"/>
    </contour>
  </outline>
</glyph>
<glyph name="w" format="1">
  <advance width="1053"/>
  <unicode hex="0077"/>
  <outline>
    <contour>
      <point x="716" y="502" type="line"/>
      <point x="829" y="1333" type="line"/>
      <point x="1026" y="1333" type="line"/>
      <point x="794" y="0" type="line"/>
      <point x="638" y="0" type="line"/>
      <point x="515" y="902" type="line"/>
      <point x="393" y="0" type="line"/>
      <point x="237" y="0" type="line"/>
      <point x="5" y="1333" type="line"/>
      <point x="201" y="1333" type="line"/>
      <point x="314" y="502" type="line"/>
      <point x="423" y="1333" type="line"/>
      <point x="607" y="1333" type="line"/>
    </contour>
  </outline>
</glyph>
<glyph name="x" format="1">
  <advance width="602"/>
  <unicode hex="0078"/>
  <outline>
    <contour>
      <point x="214" y="0" type="line"/>
      <point x="304" y="350" type="line"/>
      <point x="403" y="0" type="line"/>
      <point x="571" y="0" type="line"/>
      <point x="384" y="655" type="line"/>
      <point x="560" y="1333" type="line"/>
      <point x="376" y="1333" type="line"/>
      <point x="288" y="991" type="line"/>
      <point x="192" y="1333" type="line"/>
      <point x="34" y="1333" type="line"/>
      <point x="210" y="690" type="line"/>
      <point x="34" y="0" type="line"/>
    </contour>
  </outline>
</glyph>
<glyph name="y" format="1">
  <advance width="670"/>
  <unicode hex="0079"/>
  <outline>
    <contour>
      <point x="111.032" y="-129" type="line"/>
      <point x="103.604" y="-162.124"/>
      <point x="98.2529" y="-197.191"/>
      <point x="98.2529" y="-227.816" type="curve" smooth="yes"/>
      <point x="98.2529" y="-276.884"/>
      <point x="111.988" y="-314.548"/>
      <point x="152.921" y="-314.548" type="curve" smooth="yes"/>
      <point x="224.567" y="-314.548"/>
      <point x="222.251" y="-180.393"/>
      <point x="242.567" y="-58.4229" type="curve"/>
      <point x="-0.967773" y="1333" type="line"/>
      <point x="212.032" y="1333" type="line"/>
      <point x="346.032" y="272" type="line"/>
      <point x="454.032" y="1333" type="line"/>
      <point x="638.032" y="1333" type="line"/>
      <point x="452.032" y="-1" type="line" smooth="yes"/>
      <point x="408.48" y="-313.351"/>
      <point x="335.567" y="-439.236"/>
      <point x="157.711" y="-439.236" type="curve" smooth="yes"/>
      <point x="20.2822" y="-439.236"/>
      <point x="-36" y="-371.29"/>
      <point x="-36" y="-245.015" type="curve" smooth="yes"/>
      <point x="-36" y="-210.608"/>
      <point x="-31.8213" y="-171.872"/>
      <point x="-23.9678" y="-129" type="curve"/>
    </contour>
  </outline>
</glyph>
<glyph name="z" format="1">
  <advance width="628"/>
  <unicode hex="007A"/>
  <outline>
    <contour>
      <point x="47" y="0" type="line"/>
      <point x="47" y="127" type="line"/>
      <point x="336" y="1167" type="line"/>
      <point x="55" y="1167" type="line"/>
      <point x="55" y="1333" type="line"/>
      <point x="571" y="1333" type="line"/>
      <point x="571" y="1210" type="line"/>
      <point x="287" y="166" type="line"/>
      <point x="561" y="166" type="line"/>
      <point x="561" y="0" type="line"/>
    </contour>
  </outline>
</glyph>
<glyph name="dieresis" format="1">
  <advance width="1707"/>
  <unicode hex="00A8"/>
  <outline>
    <contour>
      <point x="205" y="1536" type="line"/>
      <point x="205" y="1748" type="line"/>
      <point x="403" y="1748" type="line"/>
      <point x="403" y="1536" type="line"/>
    </contour>
    <contour>
      <point x="565" y="1536" type="line"/>
      <point x="565" y="1748" type="line"/>
      <point x="763" y="1748" type="line"/>
      <point x="763" y="1536" type="line"/>
    </contour>
  </outline>
</glyph>
<glyph name="acute" format="1">
  <advance width="698"/>
  <unicode hex="00B4"/>
  <outline>
    <contour>
      <point x="233" y="1217" type="line"/>
      <point x="684" y="1450" type="line"/>
      <point x="324" y="1450" type="line"/>
      <point x="47" y="1217" type="line"/>
    </contour>
  </outline>
</glyph>
<glyph name="paragraph" format="1">
  <advance width="863"/>
  <unicode hex="00B6"/>
  <outline>
    <contour>
      <point x="453" y="1866" type="line" smooth="yes"/>
      <point x="152" y="1866"/>
      <point x="91" y="1656"/>
      <point x="91" y="1354" type="curve"/>
      <point x="89" y="1019"/>
      <point x="237" y="838"/>
      <point x="578" y="850" type="curve"/>
      <point x="578" y="0" type="line"/>
      <point x="818" y="0" type="line"/>
      <point x="818" y="1866" type="line"/>
    </contour>
  </outline>
</glyph>
<glyph name="germandbls" format="1">
  <advance width="901"/>
  <unicode hex="00DF"/>
  <outline>
    <contour>
      <point x="592" y="532" type="curve"/>
      <point x="592" y="347"/>
      <point x="606" y="162"/>
      <point x="424" y="162" type="curve" smooth="yes"/>
      <point x="379" y="162" type="line"/>
      <point x="379" y="0" type="line"/>
      <point x="551" y="0" type="line"/>
      <point x="813" y="12"/>
      <point x="851" y="258"/>
      <point x="856" y="532" type="curve"/>
      <point x="852" y="767"/>
      <point x="797" y="955"/>
      <point x="617" y="1006" type="curve"/>
      <point x="615" y="1018" type="line"/>
      <point x="758" y="1057"/>
      <point x="789" y="1209"/>
      <point x="789" y="1393" type="curve"/>
      <point x="791" y="1684"/>
      <point x="720" y="1873"/>
      <point x="433" y="1866" type="curve"/>
      <point x="145" y="1878"/>
      <point x="79" y="1681"/>
      <point x="82" y="1393" type="curve"/>
      <point x="82" y="0" type="line"/>
      <point x="322" y="0" type="line"/>
      <point x="322" y="1393" type="line" smooth="yes"/>
      <point x="322" y="1520"/>
      <point x="311" y="1716"/>
      <point x="434" y="1716" type="curve" smooth="yes"/>
      <point x="558" y="1716"/>
      <point x="545" y="1522"/>
      <point x="545" y="1393" type="curve" smooth="yes"/>
      <point x="545" y="1245"/>
      <point x="538" y="1083"/>
      <point x="390" y="1083" type="curve"/>
      <point x="390" y="922" type="line"/>
      <point x="578" y="913"/>
      <point x="587" y="732"/>
    </contour>
  </outline>
</glyph>
<glyph name="OE" format="1">
  <advance width="1650"/>
  <unicode hex="0152"/>
  <outline>
    <contour>
      <point x="1131" y="1866" type="line"/>
      <point x="1131" y="1686" type="line"/>
      <point x="850" y="1686" type="line"/>
      <point x="850" y="1051" type="line"/>
      <point x="1122" y="1051" type="line"/>
      <point x="1122" y="872" type="line"/>
      <point x="850" y="872" type="line"/>
      <point x="850" y="180" type="line"/>
      <point x="1187" y="180" type="line"/>
      <point x="1187" y="0" type="line"/>
      <point x="610" y="0" type="line"/>
      <point x="610" y="0"/>
      <point x="526" y="0"/>
      <point x="474" y="0" type="curve" smooth="yes"/>
      <point x="102" y="0"/>
      <point x="75" y="391"/>
      <point x="75" y="756" type="curve" smooth="yes"/>
      <point x="75" y="850"/>
      <point x="76" y="935"/>
      <point x="76" y="1025" type="curve" smooth="yes"/>
      <point x="76" y="1409"/>
      <point x="90" y="1866"/>
      <point x="474" y="1866" type="curve" smooth="yes"/>
      <point x="526" y="1866"/>
      <point x="610" y="1866"/>
      <point x="610" y="1866" type="curve"/>
    </contour>
    <contour>
      <point x="474" y="1694" type="curve" smooth="yes"/>
      <point x="347" y="1694"/>
      <point x="337" y="1384"/>
      <point x="337" y="1024" type="curve" smooth="yes"/>
      <point x="337" y="386"/>
      <point x="333" y="160"/>
      <point x="474" y="160" type="curve" smooth="yes"/>
      <point x="546" y="160"/>
      <point x="587" y="164"/>
      <point x="610" y="168" type="curve"/>
      <point x="610" y="1680" type="line"/>
      <point x="587" y="1688"/>
      <point x="546" y="1694"/>
    </contour>
  </outline>
</glyph>
<glyph name="oe" format="1">
  <advance width="1410"/>
  <unicode hex="0153"/>
  <outline>
    <contour>
      <point x="344" y="1358" type="curve"/>
      <point x="432" y="1353"/>
      <point x="495" y="1322"/>
      <point x="539" y="1272" type="curve"/>
      <point x="583" y="1325"/>
      <point x="643" y="1358"/>
      <point x="726" y="1358" type="curve" smooth="yes"/>
      <point x="1003" y="1358"/>
      <point x="1026" y="1029"/>
      <point x="1026" y="779" type="curve" smooth="yes"/>
      <point x="1026" y="730"/>
      <point x="1025" y="685"/>
      <point x="1025" y="645" type="curve"/>
      <point x="637" y="645" type="line"/>
      <point x="637" y="140"/>
      <point x="671" y="104"/>
      <point x="751" y="104" type="curve" smooth="yes"/>
      <point x="829" y="104"/>
      <point x="845" y="199"/>
      <point x="845" y="300" type="curve"/>
      <point x="844" y="316"/>
      <point x="844" y="333"/>
      <point x="844" y="349" type="curve"/>
      <point x="838" y="508" type="line"/>
      <point x="1007" y="508" type="line"/>
      <point x="1020" y="420"/>
      <point x="1027" y="344"/>
      <point x="1027" y="279" type="curve" smooth="yes"/>
      <point x="1027" y="64"/>
      <point x="949" y="-29"/>
      <point x="736" y="-29" type="curve" smooth="yes"/>
      <point x="648" y="-29"/>
      <point x="586" y="10"/>
      <point x="541" y="62" type="curve"/>
      <point x="496" y="11"/>
      <point x="433" y="-29"/>
      <point x="344" y="-29" type="curve" smooth="yes"/>
      <point x="106" y="-29"/>
      <point x="55" y="191"/>
      <point x="55" y="438" type="curve" smooth="yes"/>
      <point x="55" y="874" type="line"/>
      <point x="57" y="1150"/>
      <point x="110" y="1344"/>
    </contour>
    <contour>
      <point x="344" y="133" type="curve"/>
      <point x="445" y="153"/>
      <point x="419" y="296"/>
      <point x="428" y="416" type="curve"/>
      <point x="428" y="895" type="line" smooth="yes"/>
      <point x="428" y="1035"/>
      <point x="434" y="1196"/>
      <point x="344" y="1196" type="curve"/>
      <point x="239" y="1175"/>
      <point x="276" y="1021"/>
      <point x="264" y="895" type="curve"/>
      <point x="264" y="416" type="line" smooth="yes"/>
      <point x="264" y="282"/>
      <point x="268" y="133"/>
    </contour>
    <contour>
      <point x="726" y="1243" type="curve" smooth="yes"/>
      <point x="651" y="1243"/>
      <point x="637" y="1051"/>
      <point x="637" y="833" type="curve" smooth="yes"/>
      <point x="637" y="760" type="line"/>
      <point x="830" y="760" type="line"/>
      <point x="830" y="1020"/>
      <point x="824" y="1243"/>
    </contour>
  </outline>
</glyph>
<glyph name="circumflex" format="1">
  <advance width="901"/>
  <unicode hex="02C6"/>
  <outline>
    <contour>
      <point x="242" y="1217" type="line"/>
      <point x="451" y="1335" type="line"/>
      <point x="659" y="1217" type="line"/>
      <point x="846" y="1217" type="line"/>
      <point x="569" y="1470" type="line"/>
      <point x="332" y="1470" type="line"/>
      <point x="55" y="1217" type="line"/>
    </contour>
  </outline>
</glyph>
<glyph name="caron" format="1">
  <advance width="889"/>
  <unicode hex="02C7"/>
  <outline>
    <contour>
      <point x="49" y="1470" type="line"/>
      <point x="326" y="1217" type="line"/>
      <point x="563" y="1217" type="line"/>
      <point x="840" y="1470" type="line"/>
      <point x="653" y="1470" type="line"/>
      <point x="444" y="1352" type="line"/>
      <point x="236" y="1470" type="line"/>
    </contour>
  </outline>
</glyph>
<glyph name="breve" format="1">
  <advance width="889"/>
  <unicode hex="02D8"/>
  <outline>
    <contour>
      <point x="441" y="1219" type="curve"/>
      <point x="564" y="1219"/>
      <point x="683" y="1302"/>
      <point x="693" y="1470" type="curve"/>
      <point x="687" y="1470"/>
      <point x="566" y="1470"/>
      <point x="566" y="1470" type="curve"/>
      <point x="556" y="1398"/>
      <point x="499" y="1361"/>
      <point x="441" y="1361" type="curve"/>
      <point x="383" y="1361"/>
      <point x="326" y="1398"/>
      <point x="316" y="1470" type="curve"/>
      <point x="316" y="1470"/>
      <point x="195" y="1470"/>
      <point x="189" y="1470" type="curve"/>
      <point x="199" y="1302"/>
      <point x="318" y="1219"/>
    </contour>
  </outline>
</glyph>
<glyph name="dotaccent" format="1">
  <advance width="400"/>
  <unicode hex="02D9"/>
  <outline>
    <contour>
      <point x="65" y="1519" type="line"/>
      <point x="65" y="1779" type="line"/>
      <point x="323" y="1779" type="line"/>
      <point x="323" y="1519" type="line"/>
    </contour>
  </outline>
</glyph>
<glyph name="ring" format="1">
  <advance width="702"/>
  <unicode hex="02DA"/>
  <outline>
    <contour>
      <point x="535" y="1457" type="curve" smooth="yes"/>
      <point x="535" y="1350"/>
      <point x="439" y="1295"/>
      <point x="343" y="1295" type="curve" smooth="yes"/>
      <point x="248" y="1295"/>
      <point x="153" y="1349"/>
      <point x="153" y="1457" type="curve" smooth="yes"/>
      <point x="153" y="1564"/>
      <point x="249" y="1619"/>
      <point x="345" y="1619" type="curve" smooth="yes"/>
      <point x="440" y="1619"/>
      <point x="535" y="1565"/>
    </contour>
    <contour>
      <point x="435" y="1457" type="curve" smooth="yes"/>
      <point x="435" y="1519"/>
      <point x="389" y="1550"/>
      <point x="344" y="1550" type="curve" smooth="yes"/>
      <point x="298" y="1550"/>
      <point x="252" y="1518"/>
      <point x="252" y="1457" type="curve" smooth="yes"/>
      <point x="252" y="1395"/>
      <point x="298" y="1365"/>
      <point x="343" y="1365" type="curve" smooth="yes"/>
      <point x="389" y="1365"/>
      <point x="435" y="1395"/>
    </contour>
  </outline>
</glyph>
<glyph name="tilde" format="1">
  <advance width="889"/>
  <unicode hex="02DC"/>
  <outline>
    <contour>
      <point x="325" y="1383" type="curve" smooth="yes"/>
      <point x="268" y="1383"/>
      <point x="204" y="1325"/>
      <point x="164" y="1187" type="curve"/>
      <point x="169" y="1187"/>
      <point x="276" y="1187"/>
      <point x="276" y="1187" type="curve"/>
      <point x="286" y="1226"/>
      <point x="304" y="1238"/>
      <point x="330" y="1238" type="curve" smooth="yes"/>
      <point x="377" y="1238"/>
      <point x="450" y="1197"/>
      <point x="557" y="1197" type="curve" smooth="yes"/>
      <point x="614" y="1197"/>
      <point x="678" y="1255"/>
      <point x="718" y="1393" type="curve"/>
      <point x="713" y="1393"/>
      <point x="606" y="1392"/>
      <point x="606" y="1392" type="curve"/>
      <point x="595" y="1353"/>
      <point x="575" y="1340"/>
      <point x="548" y="1340" type="curve" smooth="yes"/>
      <point x="497" y="1340"/>
      <point x="419" y="1383"/>
    </contour>
  </outline>
</glyph>
<glyph name="hungarumlaut" format="1">
  <advance width="1241"/>
  <unicode hex="02DD"/>
  <outline>
    <contour>
      <point x="748" y="1217" type="line"/>
      <point x="1198" y="1450" type="line"/>
      <point x="838" y="1450" type="line"/>
      <point x="561" y="1217" type="line"/>
    </contour>
    <contour>
      <point x="256" y="1217" type="line"/>
      <point x="707" y="1450" type="line"/>
      <point x="346" y="1450" type="line"/>
      <point x="70" y="1217" type="line"/>
    </contour>
  </outline>
</glyph>
<glyph name="quoteright" format="1">
  <advance width="400"/>
  <unicode hex="2019"/>
  <outline>
    <contour>
      <point x="136" y="1328" type="line"/>
      <point x="147" y="1386"/>
      <point x="166" y="1464"/>
      <point x="166" y="1532" type="curve" smooth="yes"/>
      <point x="166" y="1555"/>
      <point x="164" y="1577"/>
      <point x="159" y="1596" type="curve"/>
      <point x="48" y="1596" type="line"/>
      <point x="48" y="1866" type="line"/>
      <point x="305" y="1866" type="line"/>
      <point x="305" y="1596" type="line" smooth="yes"/>
      <point x="305" y="1496"/>
      <point x="291" y="1421"/>
      <point x="262" y="1328" type="curve"/>
    </contour>
  </outline>
</glyph>
<glyph name="quotesinglbase" format="1">
  <advance width="400"/>
  <unicode hex="201A"/>
  <outline>
    <contour>
      <point x="136" y="-237" type="line"/>
      <point x="147" y="-179"/>
      <point x="166" y="-101"/>
      <point x="166" y="-33" type="curve" smooth="yes"/>
      <point x="166" y="-10"/>
      <point x="164" y="12"/>
      <point x="159" y="31" type="curve"/>
      <point x="48" y="31" type="line"/>
      <point x="48" y="301" type="line"/>
      <point x="305" y="301" type="line"/>
      <point x="305" y="31" type="line" smooth="yes"/>
      <point x="305" y="-69"/>
      <point x="291" y="-144"/>
      <point x="262" y="-237" type="curve"/>
    </contour>
  </outline>
</glyph>
<glyph name="quotedblleft" format="1">
  <advance width="400"/>
  <unicode hex="201C"/>
  <outline>
    <contour>
      <point x="217" y="1866" type="line"/>
      <point x="206" y="1808"/>
      <point x="187" y="1730"/>
      <point x="187" y="1662" type="curve" smooth="yes"/>
      <point x="187" y="1639"/>
      <point x="189" y="1617"/>
      <point x="194" y="1598" type="curve"/>
      <point x="305" y="1598" type="line"/>
      <point x="305" y="1328" type="line"/>
      <point x="48" y="1328" type="line"/>
      <point x="48" y="1598" type="line" smooth="yes"/>
      <point x="48" y="1698"/>
      <point x="62" y="1773"/>
      <point x="91" y="1866" type="curve"/>
    </contour>
    <contour>
      <point x="568" y="1866" type="line"/>
      <point x="557" y="1808"/>
      <point x="538" y="1730"/>
      <point x="538" y="1662" type="curve" smooth="yes"/>
      <point x="538" y="1639"/>
      <point x="540" y="1617"/>
      <point x="545" y="1598" type="curve"/>
      <point x="656" y="1598" type="line"/>
      <point x="656" y="1328" type="line"/>
      <point x="399" y="1328" type="line"/>
      <point x="399" y="1598" type="line" smooth="yes"/>
      <point x="399" y="1698"/>
      <point x="413" y="1773"/>
      <point x="442" y="1866" type="curve"/>
    </contour>
  </outline>
</glyph>
<glyph name="quotedblbase" format="1">
  <advance width="400"/>
  <unicode hex="201E"/>
  <outline>
    <contour>
      <point x="136" y="-238" type="line"/>
      <point x="147" y="-180"/>
      <point x="166" y="-102"/>
      <point x="166" y="-34" type="curve" smooth="yes"/>
      <point x="166" y="-11"/>
      <point x="164" y="11"/>
      <point x="159" y="30" type="curve"/>
      <point x="48" y="30" type="line"/>
      <point x="48" y="300" type="line"/>
      <point x="305" y="300" type="line"/>
      <point x="305" y="30" type="line" smooth="yes"/>
      <point x="305" y="-70"/>
      <point x="291" y="-145"/>
      <point x="262" y="-238" type="curve"/>
    </contour>
    <contour>
      <point x="487" y="-238" type="line"/>
      <point x="498" y="-180"/>
      <point x="517" y="-102"/>
      <point x="517" y="-34" type="curve" smooth="yes"/>
      <point x="517" y="-11"/>
      <point x="515" y="11"/>
      <point x="510" y="30" type="curve"/>
      <point x="399" y="30" type="line"/>
      <point x="399" y="300" type="line"/>
      <point x="656" y="300" type="line"/>
      <point x="656" y="30" type="line" smooth="yes"/>
      <point x="656" y="-70"/>
      <point x="642" y="-145"/>
      <point x="613" y="-238" type="curve"/>
    </contour>
  </outline>
</glyph>
<glyph name="trademark" format="1">
  <advance width="576"/>
  <unicode hex="2122"/>
  <outline>
    <contour>
      <point x="372" y="1736" type="line"/>
      <point x="372" y="583" type="line"/>
      <point x="200" y="583" type="line"/>
      <point x="200" y="1739" type="line"/>
      <point x="51" y="1739" type="line"/>
      <point x="51" y="1867" type="line"/>
      <point x="516" y="1867" type="line"/>
      <point x="516" y="1736" type="line"/>
    </contour>
    <contour>
      <point x="1051" y="1867" type="line"/>
      <point x="1282" y="1867" type="line"/>
      <point x="1282" y="583" type="line"/>
      <point x="1116" y="583" type="line"/>
      <point x="1121" y="1579" type="line"/>
      <point x="1112" y="1579" type="line"/>
      <point x="1005" y="583" type="line"/>
      <point x="880" y="583" type="line"/>
      <point x="759" y="1563" type="line"/>
      <point x="750" y="1563" type="line"/>
      <point x="755" y="583" type="line"/>
      <point x="604" y="583" type="line"/>
      <point x="604" y="1867" type="line"/>
      <point x="828" y="1867" type="line"/>
      <point x="938" y="1026" type="line"/>
      <point x="946" y="1026" type="line"/>
    </contour>
  </outline>
</glyph>
